<?xml version="1.0" encoding="us-ascii" standalone="no"?><svg xmlns="http://www.w3.org/2000/svg" xmlns:xlink="http://www.w3.org/1999/xlink" contentStyleType="text/css" height="1956px" preserveAspectRatio="none" style="width:1385px;height:1956px;background:#FFFFFF;" version="1.1" viewBox="0 0 1385 1956" width="1385px" zoomAndPan="magnify"><defs/><g><!--cluster ee--><g id="cluster_ee"><path d="M8.5,1212 L29.5,1212 A3.75,3.75 0 0 1 32,1214.5 L39,1234.2969 L1375.5,1234.2969 A2.5,2.5 0 0 1 1378,1236.7969 L1378,1946.5 A2.5,2.5 0 0 1 1375.5,1949 L8.5,1949 A2.5,2.5 0 0 1 6,1946.5 L6,1214.5 A2.5,2.5 0 0 1 8.5,1212 " fill="none" style="stroke:#000000;stroke-width:1.5;"/><line style="stroke:#000000;stroke-width:1.5;" x1="6" x2="39" y1="1234.2969" y2="1234.2969"/><text fill="#000000" font-family="sans-serif" font-size="14" font-weight="bold" lengthAdjust="spacing" textLength="20" x="10" y="1226.9951">ee</text></g><!--cluster ria--><g id="cluster_ria"><path d="M32.5,1255 L53.5,1255 A3.75,3.75 0 0 1 56,1257.5 L63,1277.2969 L1351.5,1277.2969 A2.5,2.5 0 0 1 1354,1279.7969 L1354,1922.5 A2.5,2.5 0 0 1 1351.5,1925 L32.5,1925 A2.5,2.5 0 0 1 30,1922.5 L30,1257.5 A2.5,2.5 0 0 1 32.5,1255 " fill="none" style="stroke:#000000;stroke-width:1.5;"/><line style="stroke:#000000;stroke-width:1.5;" x1="30" x2="63" y1="1277.2969" y2="1277.2969"/><text fill="#000000" font-family="sans-serif" font-size="14" font-weight="bold" lengthAdjust="spacing" textLength="20" x="34" y="1269.9951">ria</text></g><!--cluster DigiDoc--><g id="cluster_DigiDoc"><path d="M56.5,1298 L116.5,1298 A3.75,3.75 0 0 1 119,1300.5 L126,1320.2969 L1327.5,1320.2969 A2.5,2.5 0 0 1 1330,1322.7969 L1330,1898.5 A2.5,2.5 0 0 1 1327.5,1901 L56.5,1901 A2.5,2.5 0 0 1 54,1898.5 L54,1300.5 A2.5,2.5 0 0 1 56.5,1298 " fill="none" style="stroke:#000000;stroke-width:1.5;"/><line style="stroke:#000000;stroke-width:1.5;" x1="54" x2="126" y1="1320.2969" y2="1320.2969"/><text fill="#000000" font-family="sans-serif" font-size="14" font-weight="bold" lengthAdjust="spacing" textLength="59" x="58" y="1312.9951">DigiDoc</text></g><!--cluster idcard--><g id="cluster_idcard"><path d="M80.5,1363 L130.5,1363 A3.75,3.75 0 0 1 133,1365.5 L140,1385.2969 L747.5,1385.2969 A2.5,2.5 0 0 1 750,1387.7969 L750,1874.5 A2.5,2.5 0 0 1 747.5,1877 L80.5,1877 A2.5,2.5 0 0 1 78,1874.5 L78,1365.5 A2.5,2.5 0 0 1 80.5,1363 " fill="none" style="stroke:#000000;stroke-width:1.5;"/><line style="stroke:#000000;stroke-width:1.5;" x1="78" x2="140" y1="1385.2969" y2="1385.2969"/><text fill="#000000" font-family="sans-serif" font-size="14" font-weight="bold" lengthAdjust="spacing" textLength="49" x="82" y="1377.9951">idcard</text></g><!--cluster smartcardreader--><g id="cluster_smartcardreader"><path d="M779.5,1348 L913.5,1348 A3.75,3.75 0 0 1 916,1350.5 L923,1370.2969 L1303.5,1370.2969 A2.5,2.5 0 0 1 1306,1372.7969 L1306,1816.5 A2.5,2.5 0 0 1 1303.5,1819 L779.5,1819 A2.5,2.5 0 0 1 777,1816.5 L777,1350.5 A2.5,2.5 0 0 1 779.5,1348 " fill="none" style="stroke:#000000;stroke-width:1.5;"/><line style="stroke:#000000;stroke-width:1.5;" x1="777" x2="923" y1="1370.2969" y2="1370.2969"/><text fill="#000000" font-family="sans-serif" font-size="14" font-weight="bold" lengthAdjust="spacing" textLength="133" x="781" y="1362.9951">smartcardreader</text></g><!--cluster nfc--><g id="cluster_nfc"><path d="M803.5,1613 L829.5,1613 A3.75,3.75 0 0 1 832,1615.5 L839,1635.2969 L1006.5,1635.2969 A2.5,2.5 0 0 1 1009,1637.7969 L1009,1792.5 A2.5,2.5 0 0 1 1006.5,1795 L803.5,1795 A2.5,2.5 0 0 1 801,1792.5 L801,1615.5 A2.5,2.5 0 0 1 803.5,1613 " fill="none" style="stroke:#000000;stroke-width:1.5;"/><line style="stroke:#000000;stroke-width:1.5;" x1="801" x2="839" y1="1635.2969" y2="1635.2969"/><text fill="#000000" font-family="sans-serif" font-size="14" font-weight="bold" lengthAdjust="spacing" textLength="25" x="805" y="1627.9951">nfc</text></g><!--cluster java--><g id="cluster_java"><path d="M144.5,627 L176.5,627 A3.75,3.75 0 0 1 179,629.5 L186,649.2969 L255.5,649.2969 A2.5,2.5 0 0 1 258,651.7969 L258,1185.5 A2.5,2.5 0 0 1 255.5,1188 L144.5,1188 A2.5,2.5 0 0 1 142,1185.5 L142,629.5 A2.5,2.5 0 0 1 144.5,627 " fill="none" style="stroke:#000000;stroke-width:1.5;"/><line style="stroke:#000000;stroke-width:1.5;" x1="142" x2="186" y1="649.2969" y2="649.2969"/><text fill="#000000" font-family="sans-serif" font-size="14" font-weight="bold" lengthAdjust="spacing" textLength="31" x="146" y="641.9951">java</text><text fill="#000000" font-family="sans-serif" font-size="14" font-style="italic" lengthAdjust="spacing" textLength="74" x="167" y="664.292">&#171;External&#187;</text></g><!--cluster javax--><g id="cluster_javax"><path d="M151,482 L192,482 A3.75,3.75 0 0 1 194.5,484.5 L201.5,504.2969 L249,504.2969 A2.5,2.5 0 0 1 251.5,506.7969 L251.5,600.5 A2.5,2.5 0 0 1 249,603 L151,603 A2.5,2.5 0 0 1 148.5,600.5 L148.5,484.5 A2.5,2.5 0 0 1 151,482 " fill="none" style="stroke:#000000;stroke-width:1.5;"/><line style="stroke:#000000;stroke-width:1.5;" x1="148.5" x2="201.5" y1="504.2969" y2="504.2969"/><text fill="#000000" font-family="sans-serif" font-size="14" font-weight="bold" lengthAdjust="spacing" textLength="40" x="152.5" y="496.9951">javax</text><text fill="#000000" font-family="sans-serif" font-size="14" font-style="italic" lengthAdjust="spacing" textLength="74" x="167" y="519.292">&#171;External&#187;</text></g><!--cluster org--><g id="cluster_org"><path d="M118,6 L146,6 A3.75,3.75 0 0 1 148.5,8.5 L155.5,28.2969 L282,28.2969 A2.5,2.5 0 0 1 284.5,30.7969 L284.5,455.5 A2.5,2.5 0 0 1 282,458 L118,458 A2.5,2.5 0 0 1 115.5,455.5 L115.5,8.5 A2.5,2.5 0 0 1 118,6 " fill="none" style="stroke:#000000;stroke-width:1.5;"/><line style="stroke:#000000;stroke-width:1.5;" x1="115.5" x2="155.5" y1="28.2969" y2="28.2969"/><text fill="#000000" font-family="sans-serif" font-size="14" font-weight="bold" lengthAdjust="spacing" textLength="27" x="119.5" y="20.9951">org</text></g><!--cluster bouncycastle--><g id="cluster_bouncycastle"><path d="M142,49 L248,49 A3.75,3.75 0 0 1 250.5,51.5 L257.5,71.2969 L258,71.2969 A2.5,2.5 0 0 1 260.5,73.7969 L260.5,431.5 A2.5,2.5 0 0 1 258,434 L142,434 A2.5,2.5 0 0 1 139.5,431.5 L139.5,51.5 A2.5,2.5 0 0 1 142,49 " fill="none" style="stroke:#000000;stroke-width:1.5;"/><line style="stroke:#000000;stroke-width:1.5;" x1="139.5" x2="257.5" y1="71.2969" y2="71.2969"/><text fill="#000000" font-family="sans-serif" font-size="14" font-weight="bold" lengthAdjust="spacing" textLength="105" x="143.5" y="63.9951">bouncycastle</text><text fill="#000000" font-family="sans-serif" font-size="14" font-style="italic" lengthAdjust="spacing" textLength="74" x="167" y="86.292">&#171;External&#187;</text></g><!--class EstEIDToken--><g id="elem_EstEIDToken"><rect codeLine="4" fill="#F1F1F1" height="48" id="EstEIDToken" rx="2.5" ry="2.5" style="stroke:#181818;stroke-width:0.5;" width="121" x="396.5" y="1398"/><ellipse cx="411.5" cy="1414" fill="#A9DCDF" rx="11" ry="11" style="stroke:#181818;stroke-width:1.0;"/><path d="M411.6094,1409.3438 L410.4531,1414.4219 L412.7813,1414.4219 L411.6094,1409.3438 Z M410.125,1407.1094 L413.1094,1407.1094 L416.4688,1419.5 L414.0156,1419.5 L413.25,1416.4375 L409.9688,1416.4375 L409.2188,1419.5 L406.7813,1419.5 L410.125,1407.1094 Z " fill="#000000"/><text fill="#000000" font-family="sans-serif" font-size="14" font-style="italic" lengthAdjust="spacing" textLength="89" x="425.5" y="1418.8467">EstEIDToken</text><line style="stroke:#181818;stroke-width:0.5;" x1="397.5" x2="516.5" y1="1430" y2="1430"/><line style="stroke:#181818;stroke-width:0.5;" x1="397.5" x2="516.5" y1="1438" y2="1438"/></g><!--class PersonalData--><g id="elem_PersonalData"><rect codeLine="5" fill="#F1F1F1" height="48" id="PersonalData" rx="2.5" ry="2.5" style="stroke:#181818;stroke-width:0.5;" width="122" x="139" y="1813"/><ellipse cx="154" cy="1829" fill="#A9DCDF" rx="11" ry="11" style="stroke:#181818;stroke-width:1.0;"/><path d="M154.1094,1824.3438 L152.9531,1829.4219 L155.2813,1829.4219 L154.1094,1824.3438 Z M152.625,1822.1094 L155.6094,1822.1094 L158.9688,1834.5 L156.5156,1834.5 L155.75,1831.4375 L152.4688,1831.4375 L151.7188,1834.5 L149.2813,1834.5 L152.625,1822.1094 Z " fill="#000000"/><text fill="#000000" font-family="sans-serif" font-size="14" font-style="italic" lengthAdjust="spacing" textLength="90" x="168" y="1833.8467">PersonalData</text><line style="stroke:#181818;stroke-width:0.5;" x1="140" x2="260" y1="1845" y2="1845"/><line style="stroke:#181818;stroke-width:0.5;" x1="140" x2="260" y1="1853" y2="1853"/></g><!--class AlgorithmUtils--><g id="elem_AlgorithmUtils"><rect codeLine="7" fill="#F1F1F1" height="48" id="AlgorithmUtils" rx="2.5" ry="2.5" style="stroke:#181818;stroke-width:0.5;" width="126" x="608" y="1647"/><ellipse cx="623" cy="1663" fill="#ADD1B2" rx="11" ry="11" style="stroke:#181818;stroke-width:1.0;"/><path d="M625.9688,1668.6406 Q625.3906,1668.9375 624.75,1669.0781 Q624.1094,1669.2344 623.4063,1669.2344 Q620.9063,1669.2344 619.5781,1667.5938 Q618.2656,1665.9375 618.2656,1662.8125 Q618.2656,1659.6875 619.5781,1658.0313 Q620.9063,1656.375 623.4063,1656.375 Q624.1094,1656.375 624.75,1656.5313 Q625.4063,1656.6875 625.9688,1656.9844 L625.9688,1659.7031 Q625.3438,1659.125 624.75,1658.8594 Q624.1563,1658.5781 623.5313,1658.5781 Q622.1875,1658.5781 621.5,1659.6563 Q620.8125,1660.7188 620.8125,1662.8125 Q620.8125,1664.9063 621.5,1665.9844 Q622.1875,1667.0469 623.5313,1667.0469 Q624.1563,1667.0469 624.75,1666.7813 Q625.3438,1666.5 625.9688,1665.9219 L625.9688,1668.6406 Z " fill="#000000"/><text fill="#000000" font-family="sans-serif" font-size="14" lengthAdjust="spacing" textLength="94" x="637" y="1667.8467">AlgorithmUtils</text><line style="stroke:#181818;stroke-width:0.5;" x1="609" x2="733" y1="1679" y2="1679"/><line style="stroke:#181818;stroke-width:0.5;" x1="609" x2="733" y1="1687" y2="1687"/></g><!--class CodeVerificationException--><g id="elem_CodeVerificationException"><rect codeLine="8" fill="#F1F1F1" height="48" id="CodeVerificationException" rx="2.5" ry="2.5" style="stroke:#181818;stroke-width:0.5;" width="212" x="94" y="1730"/><ellipse cx="109" cy="1746" fill="#ADD1B2" rx="11" ry="11" style="stroke:#181818;stroke-width:1.0;"/><path d="M111.9688,1751.6406 Q111.3906,1751.9375 110.75,1752.0781 Q110.1094,1752.2344 109.4063,1752.2344 Q106.9063,1752.2344 105.5781,1750.5938 Q104.2656,1748.9375 104.2656,1745.8125 Q104.2656,1742.6875 105.5781,1741.0313 Q106.9063,1739.375 109.4063,1739.375 Q110.1094,1739.375 110.75,1739.5313 Q111.4063,1739.6875 111.9688,1739.9844 L111.9688,1742.7031 Q111.3438,1742.125 110.75,1741.8594 Q110.1563,1741.5781 109.5313,1741.5781 Q108.1875,1741.5781 107.5,1742.6563 Q106.8125,1743.7188 106.8125,1745.8125 Q106.8125,1747.9063 107.5,1748.9844 Q108.1875,1750.0469 109.5313,1750.0469 Q110.1563,1750.0469 110.75,1749.7813 Q111.3438,1749.5 111.9688,1748.9219 L111.9688,1751.6406 Z " fill="#000000"/><text fill="#000000" font-family="sans-serif" font-size="14" lengthAdjust="spacing" textLength="180" x="123" y="1750.8467">CodeVerificationException</text><line style="stroke:#181818;stroke-width:0.5;" x1="95" x2="305" y1="1762" y2="1762"/><line style="stroke:#181818;stroke-width:0.5;" x1="95" x2="305" y1="1770" y2="1770"/></g><!--class EstEIDv3d4--><g id="elem_EstEIDv3d4"><rect codeLine="9" fill="#F1F1F1" height="48" id="EstEIDv3d4" rx="2.5" ry="2.5" style="stroke:#181818;stroke-width:0.5;" width="111" x="615.5" y="1481"/><ellipse cx="630.5" cy="1497" fill="#ADD1B2" rx="11" ry="11" style="stroke:#181818;stroke-width:1.0;"/><path d="M633.4688,1502.6406 Q632.8906,1502.9375 632.25,1503.0781 Q631.6094,1503.2344 630.9063,1503.2344 Q628.4063,1503.2344 627.0781,1501.5938 Q625.7656,1499.9375 625.7656,1496.8125 Q625.7656,1493.6875 627.0781,1492.0313 Q628.4063,1490.375 630.9063,1490.375 Q631.6094,1490.375 632.25,1490.5313 Q632.9063,1490.6875 633.4688,1490.9844 L633.4688,1493.7031 Q632.8438,1493.125 632.25,1492.8594 Q631.6563,1492.5781 631.0313,1492.5781 Q629.6875,1492.5781 629,1493.6563 Q628.3125,1494.7188 628.3125,1496.8125 Q628.3125,1498.9063 629,1499.9844 Q629.6875,1501.0469 631.0313,1501.0469 Q631.6563,1501.0469 632.25,1500.7813 Q632.8438,1500.5 633.4688,1499.9219 L633.4688,1502.6406 Z " fill="#000000"/><text fill="#000000" font-family="sans-serif" font-size="14" lengthAdjust="spacing" textLength="79" x="644.5" y="1501.8467">EstEIDv3d4</text><line style="stroke:#181818;stroke-width:0.5;" x1="616.5" x2="725.5" y1="1513" y2="1513"/><line style="stroke:#181818;stroke-width:0.5;" x1="616.5" x2="725.5" y1="1521" y2="1521"/></g><!--class EstEIDv3d5--><g id="elem_EstEIDv3d5"><rect codeLine="10" fill="#F1F1F1" height="48" id="EstEIDv3d5" rx="2.5" ry="2.5" style="stroke:#181818;stroke-width:0.5;" width="111" x="615.5" y="1564"/><ellipse cx="630.5" cy="1580" fill="#ADD1B2" rx="11" ry="11" style="stroke:#181818;stroke-width:1.0;"/><path d="M633.4688,1585.6406 Q632.8906,1585.9375 632.25,1586.0781 Q631.6094,1586.2344 630.9063,1586.2344 Q628.4063,1586.2344 627.0781,1584.5938 Q625.7656,1582.9375 625.7656,1579.8125 Q625.7656,1576.6875 627.0781,1575.0313 Q628.4063,1573.375 630.9063,1573.375 Q631.6094,1573.375 632.25,1573.5313 Q632.9063,1573.6875 633.4688,1573.9844 L633.4688,1576.7031 Q632.8438,1576.125 632.25,1575.8594 Q631.6563,1575.5781 631.0313,1575.5781 Q629.6875,1575.5781 629,1576.6563 Q628.3125,1577.7188 628.3125,1579.8125 Q628.3125,1581.9063 629,1582.9844 Q629.6875,1584.0469 631.0313,1584.0469 Q631.6563,1584.0469 632.25,1583.7813 Q632.8438,1583.5 633.4688,1582.9219 L633.4688,1585.6406 Z " fill="#000000"/><text fill="#000000" font-family="sans-serif" font-size="14" lengthAdjust="spacing" textLength="79" x="644.5" y="1584.8467">EstEIDv3d5</text><line style="stroke:#181818;stroke-width:0.5;" x1="616.5" x2="725.5" y1="1596" y2="1596"/><line style="stroke:#181818;stroke-width:0.5;" x1="616.5" x2="725.5" y1="1604" y2="1604"/></g><!--class ID1--><g id="elem_ID1"><rect codeLine="11" fill="#F1F1F1" height="48" id="ID1" rx="2.5" ry="2.5" style="stroke:#181818;stroke-width:0.5;" width="55" x="429.5" y="1481"/><ellipse cx="444.5" cy="1497" fill="#ADD1B2" rx="11" ry="11" style="stroke:#181818;stroke-width:1.0;"/><path d="M447.4688,1502.6406 Q446.8906,1502.9375 446.25,1503.0781 Q445.6094,1503.2344 444.9063,1503.2344 Q442.4063,1503.2344 441.0781,1501.5938 Q439.7656,1499.9375 439.7656,1496.8125 Q439.7656,1493.6875 441.0781,1492.0313 Q442.4063,1490.375 444.9063,1490.375 Q445.6094,1490.375 446.25,1490.5313 Q446.9063,1490.6875 447.4688,1490.9844 L447.4688,1493.7031 Q446.8438,1493.125 446.25,1492.8594 Q445.6563,1492.5781 445.0313,1492.5781 Q443.6875,1492.5781 443,1493.6563 Q442.3125,1494.7188 442.3125,1496.8125 Q442.3125,1498.9063 443,1499.9844 Q443.6875,1501.0469 445.0313,1501.0469 Q445.6563,1501.0469 446.25,1500.7813 Q446.8438,1500.5 447.4688,1499.9219 L447.4688,1502.6406 Z " fill="#000000"/><text fill="#000000" font-family="sans-serif" font-size="14" lengthAdjust="spacing" textLength="23" x="458.5" y="1501.8467">ID1</text><line style="stroke:#181818;stroke-width:0.5;" x1="430.5" x2="483.5" y1="1513" y2="1513"/><line style="stroke:#181818;stroke-width:0.5;" x1="430.5" x2="483.5" y1="1521" y2="1521"/></g><!--class ID1PersonalDataParser--><g id="elem_ID1PersonalDataParser"><rect codeLine="12" fill="#F1F1F1" height="48" id="ID1PersonalDataParser" rx="2.5" ry="2.5" style="stroke:#181818;stroke-width:0.5;" width="191" x="104.5" y="1647"/><ellipse cx="119.5" cy="1663" fill="#ADD1B2" rx="11" ry="11" style="stroke:#181818;stroke-width:1.0;"/><path d="M122.4688,1668.6406 Q121.8906,1668.9375 121.25,1669.0781 Q120.6094,1669.2344 119.9063,1669.2344 Q117.4063,1669.2344 116.0781,1667.5938 Q114.7656,1665.9375 114.7656,1662.8125 Q114.7656,1659.6875 116.0781,1658.0313 Q117.4063,1656.375 119.9063,1656.375 Q120.6094,1656.375 121.25,1656.5313 Q121.9063,1656.6875 122.4688,1656.9844 L122.4688,1659.7031 Q121.8438,1659.125 121.25,1658.8594 Q120.6563,1658.5781 120.0313,1658.5781 Q118.6875,1658.5781 118,1659.6563 Q117.3125,1660.7188 117.3125,1662.8125 Q117.3125,1664.9063 118,1665.9844 Q118.6875,1667.0469 120.0313,1667.0469 Q120.6563,1667.0469 121.25,1666.7813 Q121.8438,1666.5 122.4688,1665.9219 L122.4688,1668.6406 Z " fill="#000000"/><text fill="#000000" font-family="sans-serif" font-size="14" lengthAdjust="spacing" textLength="159" x="133.5" y="1667.8467">ID1PersonalDataParser</text><line style="stroke:#181818;stroke-width:0.5;" x1="105.5" x2="294.5" y1="1679" y2="1679"/><line style="stroke:#181818;stroke-width:0.5;" x1="105.5" x2="294.5" y1="1687" y2="1687"/></g><!--class ID1WithPace--><g id="elem_ID1WithPace"><rect codeLine="13" fill="#F1F1F1" height="48" id="ID1WithPace" rx="2.5" ry="2.5" style="stroke:#181818;stroke-width:0.5;" width="119" x="611.5" y="1730"/><ellipse cx="626.5" cy="1746" fill="#ADD1B2" rx="11" ry="11" style="stroke:#181818;stroke-width:1.0;"/><path d="M629.4688,1751.6406 Q628.8906,1751.9375 628.25,1752.0781 Q627.6094,1752.2344 626.9063,1752.2344 Q624.4063,1752.2344 623.0781,1750.5938 Q621.7656,1748.9375 621.7656,1745.8125 Q621.7656,1742.6875 623.0781,1741.0313 Q624.4063,1739.375 626.9063,1739.375 Q627.6094,1739.375 628.25,1739.5313 Q628.9063,1739.6875 629.4688,1739.9844 L629.4688,1742.7031 Q628.8438,1742.125 628.25,1741.8594 Q627.6563,1741.5781 627.0313,1741.5781 Q625.6875,1741.5781 625,1742.6563 Q624.3125,1743.7188 624.3125,1745.8125 Q624.3125,1747.9063 625,1748.9844 Q625.6875,1750.0469 627.0313,1750.0469 Q627.6563,1750.0469 628.25,1749.7813 Q628.8438,1749.5 629.4688,1748.9219 L629.4688,1751.6406 Z " fill="#000000"/><text fill="#000000" font-family="sans-serif" font-size="14" lengthAdjust="spacing" textLength="87" x="640.5" y="1750.8467">ID1WithPace</text><line style="stroke:#181818;stroke-width:0.5;" x1="612.5" x2="729.5" y1="1762" y2="1762"/><line style="stroke:#181818;stroke-width:0.5;" x1="612.5" x2="729.5" y1="1770" y2="1770"/></g><!--class IdCardException--><g id="elem_IdCardException"><rect codeLine="14" fill="#F1F1F1" height="48" id="IdCardException" rx="2.5" ry="2.5" style="stroke:#181818;stroke-width:0.5;" width="144" x="385" y="1813"/><ellipse cx="400" cy="1829" fill="#ADD1B2" rx="11" ry="11" style="stroke:#181818;stroke-width:1.0;"/><path d="M402.9688,1834.6406 Q402.3906,1834.9375 401.75,1835.0781 Q401.1094,1835.2344 400.4063,1835.2344 Q397.9063,1835.2344 396.5781,1833.5938 Q395.2656,1831.9375 395.2656,1828.8125 Q395.2656,1825.6875 396.5781,1824.0313 Q397.9063,1822.375 400.4063,1822.375 Q401.1094,1822.375 401.75,1822.5313 Q402.4063,1822.6875 402.9688,1822.9844 L402.9688,1825.7031 Q402.3438,1825.125 401.75,1824.8594 Q401.1563,1824.5781 400.5313,1824.5781 Q399.1875,1824.5781 398.5,1825.6563 Q397.8125,1826.7188 397.8125,1828.8125 Q397.8125,1830.9063 398.5,1831.9844 Q399.1875,1833.0469 400.5313,1833.0469 Q401.1563,1833.0469 401.75,1832.7813 Q402.3438,1832.5 402.9688,1831.9219 L402.9688,1834.6406 Z " fill="#000000"/><text fill="#000000" font-family="sans-serif" font-size="14" lengthAdjust="spacing" textLength="112" x="414" y="1833.8467">IdCardException</text><line style="stroke:#181818;stroke-width:0.5;" x1="386" x2="528" y1="1845" y2="1845"/><line style="stroke:#181818;stroke-width:0.5;" x1="386" x2="528" y1="1853" y2="1853"/></g><!--class PaceTunnelException--><g id="elem_PaceTunnelException"><rect codeLine="15" fill="#F1F1F1" height="48" id="PaceTunnelException" rx="2.5" ry="2.5" style="stroke:#181818;stroke-width:0.5;" width="182" x="366" y="1730"/><ellipse cx="381" cy="1746" fill="#ADD1B2" rx="11" ry="11" style="stroke:#181818;stroke-width:1.0;"/><path d="M383.9688,1751.6406 Q383.3906,1751.9375 382.75,1752.0781 Q382.1094,1752.2344 381.4063,1752.2344 Q378.9063,1752.2344 377.5781,1750.5938 Q376.2656,1748.9375 376.2656,1745.8125 Q376.2656,1742.6875 377.5781,1741.0313 Q378.9063,1739.375 381.4063,1739.375 Q382.1094,1739.375 382.75,1739.5313 Q383.4063,1739.6875 383.9688,1739.9844 L383.9688,1742.7031 Q383.3438,1742.125 382.75,1741.8594 Q382.1563,1741.5781 381.5313,1741.5781 Q380.1875,1741.5781 379.5,1742.6563 Q378.8125,1743.7188 378.8125,1745.8125 Q378.8125,1747.9063 379.5,1748.9844 Q380.1875,1750.0469 381.5313,1750.0469 Q382.1563,1750.0469 382.75,1749.7813 Q383.3438,1749.5 383.9688,1748.9219 L383.9688,1751.6406 Z " fill="#000000"/><text fill="#000000" font-family="sans-serif" font-size="14" lengthAdjust="spacing" textLength="150" x="395" y="1750.8467">PaceTunnelException</text><line style="stroke:#181818;stroke-width:0.5;" x1="367" x2="547" y1="1762" y2="1762"/><line style="stroke:#181818;stroke-width:0.5;" x1="367" x2="547" y1="1770" y2="1770"/></g><!--class CertificateType--><g id="elem_CertificateType"><rect codeLine="41" fill="#F1F1F1" height="48" id="CertificateType" rx="2.5" ry="2.5" style="stroke:#181818;stroke-width:0.5;" width="135" x="389.5" y="1647"/><ellipse cx="404.5" cy="1663" fill="#EB937F" rx="11" ry="11" style="stroke:#181818;stroke-width:1.0;"/><path d="M408.6094,1669 L400.8906,1669 L400.8906,1656.6094 L408.6094,1656.6094 L408.6094,1658.7656 L403.3438,1658.7656 L403.3438,1661.4375 L408.1094,1661.4375 L408.1094,1663.5938 L403.3438,1663.5938 L403.3438,1666.8438 L408.6094,1666.8438 L408.6094,1669 Z " fill="#000000"/><text fill="#000000" font-family="sans-serif" font-size="14" lengthAdjust="spacing" textLength="103" x="418.5" y="1667.8467">CertificateType</text><line style="stroke:#181818;stroke-width:0.5;" x1="390.5" x2="523.5" y1="1679" y2="1679"/><line style="stroke:#181818;stroke-width:0.5;" x1="390.5" x2="523.5" y1="1687" y2="1687"/></g><!--class CodeType--><g id="elem_CodeType"><rect codeLine="42" fill="#F1F1F1" height="48" id="CodeType" rx="2.5" ry="2.5" style="stroke:#181818;stroke-width:0.5;" width="103" x="619.5" y="1813"/><ellipse cx="634.5" cy="1829" fill="#EB937F" rx="11" ry="11" style="stroke:#181818;stroke-width:1.0;"/><path d="M638.6094,1835 L630.8906,1835 L630.8906,1822.6094 L638.6094,1822.6094 L638.6094,1824.7656 L633.3438,1824.7656 L633.3438,1827.4375 L638.1094,1827.4375 L638.1094,1829.5938 L633.3438,1829.5938 L633.3438,1832.8438 L638.6094,1832.8438 L638.6094,1835 Z " fill="#000000"/><text fill="#000000" font-family="sans-serif" font-size="14" lengthAdjust="spacing" textLength="71" x="648.5" y="1833.8467">CodeType</text><line style="stroke:#181818;stroke-width:0.5;" x1="620.5" x2="721.5" y1="1845" y2="1845"/><line style="stroke:#181818;stroke-width:0.5;" x1="620.5" x2="721.5" y1="1853" y2="1853"/></g><!--class Token--><g id="elem_Token"><rect codeLine="43" fill="#F1F1F1" height="48" id="Token" rx="2.5" ry="2.5" style="stroke:#181818;stroke-width:0.5;" width="76" x="162" y="1440"/><ellipse cx="177" cy="1456" fill="#B4A7E5" rx="11" ry="11" style="stroke:#181818;stroke-width:1.0;"/><path d="M172.9219,1451.7656 L172.9219,1449.6094 L180.3125,1449.6094 L180.3125,1451.7656 L177.8438,1451.7656 L177.8438,1459.8438 L180.3125,1459.8438 L180.3125,1462 L172.9219,1462 L172.9219,1459.8438 L175.3906,1459.8438 L175.3906,1451.7656 L172.9219,1451.7656 Z " fill="#000000"/><text fill="#000000" font-family="sans-serif" font-size="14" font-style="italic" lengthAdjust="spacing" textLength="44" x="191" y="1460.8467">Token</text><line style="stroke:#181818;stroke-width:0.5;" x1="163" x2="237" y1="1472" y2="1472"/><line style="stroke:#181818;stroke-width:0.5;" x1="163" x2="237" y1="1480" y2="1480"/></g><!--class TokenWithPace--><g id="elem_TokenWithPace"><rect codeLine="44" fill="#F1F1F1" height="48" id="TokenWithPace" rx="2.5" ry="2.5" style="stroke:#181818;stroke-width:0.5;" width="140" x="387" y="1564"/><ellipse cx="402" cy="1580" fill="#B4A7E5" rx="11" ry="11" style="stroke:#181818;stroke-width:1.0;"/><path d="M397.9219,1575.7656 L397.9219,1573.6094 L405.3125,1573.6094 L405.3125,1575.7656 L402.8438,1575.7656 L402.8438,1583.8438 L405.3125,1583.8438 L405.3125,1586 L397.9219,1586 L397.9219,1583.8438 L400.3906,1583.8438 L400.3906,1575.7656 L397.9219,1575.7656 Z " fill="#000000"/><text fill="#000000" font-family="sans-serif" font-size="14" font-style="italic" lengthAdjust="spacing" textLength="108" x="416" y="1584.8467">TokenWithPace</text><line style="stroke:#181818;stroke-width:0.5;" x1="388" x2="526" y1="1596" y2="1596"/><line style="stroke:#181818;stroke-width:0.5;" x1="388" x2="526" y1="1604" y2="1604"/></g><!--class SmartCardReader--><g id="elem_SmartCardReader"><rect codeLine="6" fill="#F1F1F1" height="48" id="SmartCardReader" rx="2.5" ry="2.5" style="stroke:#181818;stroke-width:0.5;" width="154" x="828" y="1383"/><ellipse cx="843" cy="1399" fill="#A9DCDF" rx="11" ry="11" style="stroke:#181818;stroke-width:1.0;"/><path d="M843.1094,1394.3438 L841.9531,1399.4219 L844.2813,1399.4219 L843.1094,1394.3438 Z M841.625,1392.1094 L844.6094,1392.1094 L847.9688,1404.5 L845.5156,1404.5 L844.75,1401.4375 L841.4688,1401.4375 L840.7188,1404.5 L838.2813,1404.5 L841.625,1392.1094 Z " fill="#000000"/><text fill="#000000" font-family="sans-serif" font-size="14" font-style="italic" lengthAdjust="spacing" textLength="122" x="857" y="1403.8467">SmartCardReader</text><line style="stroke:#181818;stroke-width:0.5;" x1="829" x2="981" y1="1415" y2="1415"/><line style="stroke:#181818;stroke-width:0.5;" x1="829" x2="981" y1="1423" y2="1423"/></g><!--class ApduResponseException--><g id="elem_ApduResponseException"><rect codeLine="16" fill="#F1F1F1" height="48" id="ApduResponseException" rx="2.5" ry="2.5" style="stroke:#181818;stroke-width:0.5;" width="207" x="801.5" y="1549"/><ellipse cx="816.5" cy="1565" fill="#ADD1B2" rx="11" ry="11" style="stroke:#181818;stroke-width:1.0;"/><path d="M819.4688,1570.6406 Q818.8906,1570.9375 818.25,1571.0781 Q817.6094,1571.2344 816.9063,1571.2344 Q814.4063,1571.2344 813.0781,1569.5938 Q811.7656,1567.9375 811.7656,1564.8125 Q811.7656,1561.6875 813.0781,1560.0313 Q814.4063,1558.375 816.9063,1558.375 Q817.6094,1558.375 818.25,1558.5313 Q818.9063,1558.6875 819.4688,1558.9844 L819.4688,1561.7031 Q818.8438,1561.125 818.25,1560.8594 Q817.6563,1560.5781 817.0313,1560.5781 Q815.6875,1560.5781 815,1561.6563 Q814.3125,1562.7188 814.3125,1564.8125 Q814.3125,1566.9063 815,1567.9844 Q815.6875,1569.0469 817.0313,1569.0469 Q817.6563,1569.0469 818.25,1568.7813 Q818.8438,1568.5 819.4688,1567.9219 L819.4688,1570.6406 Z " fill="#000000"/><text fill="#000000" font-family="sans-serif" font-size="14" lengthAdjust="spacing" textLength="175" x="830.5" y="1569.8467">ApduResponseException</text><line style="stroke:#181818;stroke-width:0.5;" x1="802.5" x2="1007.5" y1="1581" y2="1581"/><line style="stroke:#181818;stroke-width:0.5;" x1="802.5" x2="1007.5" y1="1589" y2="1589"/></g><!--class SmartCardReaderException--><g id="elem_SmartCardReaderException"><rect codeLine="17" fill="#F1F1F1" height="48" id="SmartCardReaderException" rx="2.5" ry="2.5" style="stroke:#181818;stroke-width:0.5;" width="222" x="794" y="1466"/><ellipse cx="809" cy="1482" fill="#ADD1B2" rx="11" ry="11" style="stroke:#181818;stroke-width:1.0;"/><path d="M811.9688,1487.6406 Q811.3906,1487.9375 810.75,1488.0781 Q810.1094,1488.2344 809.4063,1488.2344 Q806.9063,1488.2344 805.5781,1486.5938 Q804.2656,1484.9375 804.2656,1481.8125 Q804.2656,1478.6875 805.5781,1477.0313 Q806.9063,1475.375 809.4063,1475.375 Q810.1094,1475.375 810.75,1475.5313 Q811.4063,1475.6875 811.9688,1475.9844 L811.9688,1478.7031 Q811.3438,1478.125 810.75,1477.8594 Q810.1563,1477.5781 809.5313,1477.5781 Q808.1875,1477.5781 807.5,1478.6563 Q806.8125,1479.7188 806.8125,1481.8125 Q806.8125,1483.9063 807.5,1484.9844 Q808.1875,1486.0469 809.5313,1486.0469 Q810.1563,1486.0469 810.75,1485.7813 Q811.3438,1485.5 811.9688,1484.9219 L811.9688,1487.6406 Z " fill="#000000"/><text fill="#000000" font-family="sans-serif" font-size="14" lengthAdjust="spacing" textLength="190" x="823" y="1486.8467">SmartCardReaderException</text><line style="stroke:#181818;stroke-width:0.5;" x1="795" x2="1015" y1="1498" y2="1498"/><line style="stroke:#181818;stroke-width:0.5;" x1="795" x2="1015" y1="1506" y2="1506"/></g><!--class SmartCardReaderManager--><g id="elem_SmartCardReaderManager"><rect codeLine="45" fill="#F1F1F1" height="48" id="SmartCardReaderManager" rx="2.5" ry="2.5" style="stroke:#181818;stroke-width:0.5;" width="214" x="1076" y="1549"/><ellipse cx="1091" cy="1565" fill="#B4A7E5" rx="11" ry="11" style="stroke:#181818;stroke-width:1.0;"/><path d="M1086.9219,1560.7656 L1086.9219,1558.6094 L1094.3125,1558.6094 L1094.3125,1560.7656 L1091.8438,1560.7656 L1091.8438,1568.8438 L1094.3125,1568.8438 L1094.3125,1571 L1086.9219,1571 L1086.9219,1568.8438 L1089.3906,1568.8438 L1089.3906,1560.7656 L1086.9219,1560.7656 Z " fill="#000000"/><text fill="#000000" font-family="sans-serif" font-size="14" font-style="italic" lengthAdjust="spacing" textLength="182" x="1105" y="1569.8467">SmartCardReaderManager</text><line style="stroke:#181818;stroke-width:0.5;" x1="1077" x2="1289" y1="1581" y2="1581"/><line style="stroke:#181818;stroke-width:0.5;" x1="1077" x2="1289" y1="1589" y2="1589"/></g><!--class NfcSmartCardReader--><g id="elem_NfcSmartCardReader"><rect codeLine="18" fill="#F1F1F1" height="48" id="NfcSmartCardReader" rx="2.5" ry="2.5" style="stroke:#181818;stroke-width:0.5;" width="176" x="817" y="1648"/><ellipse cx="832" cy="1664" fill="#ADD1B2" rx="11" ry="11" style="stroke:#181818;stroke-width:1.0;"/><path d="M834.9688,1669.6406 Q834.3906,1669.9375 833.75,1670.0781 Q833.1094,1670.2344 832.4063,1670.2344 Q829.9063,1670.2344 828.5781,1668.5938 Q827.2656,1666.9375 827.2656,1663.8125 Q827.2656,1660.6875 828.5781,1659.0313 Q829.9063,1657.375 832.4063,1657.375 Q833.1094,1657.375 833.75,1657.5313 Q834.4063,1657.6875 834.9688,1657.9844 L834.9688,1660.7031 Q834.3438,1660.125 833.75,1659.8594 Q833.1563,1659.5781 832.5313,1659.5781 Q831.1875,1659.5781 830.5,1660.6563 Q829.8125,1661.7188 829.8125,1663.8125 Q829.8125,1665.9063 830.5,1666.9844 Q831.1875,1668.0469 832.5313,1668.0469 Q833.1563,1668.0469 833.75,1667.7813 Q834.3438,1667.5 834.9688,1666.9219 L834.9688,1669.6406 Z " fill="#000000"/><text fill="#000000" font-family="sans-serif" font-size="14" lengthAdjust="spacing" textLength="144" x="846" y="1668.8467">NfcSmartCardReader</text><line style="stroke:#181818;stroke-width:0.5;" x1="818" x2="992" y1="1680" y2="1680"/><line style="stroke:#181818;stroke-width:0.5;" x1="818" x2="992" y1="1688" y2="1688"/></g><!--class ApduEncryptor--><g id="elem_ApduEncryptor"><rect codeLine="46" fill="#F1F1F1" height="48" id="ApduEncryptor" rx="2.5" ry="2.5" style="stroke:#181818;stroke-width:0.5;" width="136" x="837" y="1731"/><ellipse cx="852" cy="1747" fill="#B4A7E5" rx="11" ry="11" style="stroke:#181818;stroke-width:1.0;"/><path d="M847.9219,1742.7656 L847.9219,1740.6094 L855.3125,1740.6094 L855.3125,1742.7656 L852.8438,1742.7656 L852.8438,1750.8438 L855.3125,1750.8438 L855.3125,1753 L847.9219,1753 L847.9219,1750.8438 L850.3906,1750.8438 L850.3906,1742.7656 L847.9219,1742.7656 Z " fill="#000000"/><text fill="#000000" font-family="sans-serif" font-size="14" font-style="italic" lengthAdjust="spacing" textLength="104" x="866" y="1751.8467">ApduEncryptor</text><line style="stroke:#181818;stroke-width:0.5;" x1="838" x2="972" y1="1763" y2="1763"/><line style="stroke:#181818;stroke-width:0.5;" x1="838" x2="972" y1="1771" y2="1771"/></g><path d="M185.5,678.5 L200.5,678.5 A3.75,3.75 0 0 1 203,681 L210,700.7969 L214.5,700.7969 A2.5,2.5 0 0 1 217,703.2969 L217,728.5938 A2.5,2.5 0 0 1 214.5,731.0938 L185.5,731.0938 A2.5,2.5 0 0 1 183,728.5938 L183,681 A2.5,2.5 0 0 1 185.5,678.5 " fill="#F1F1F1" style="stroke:#181818;stroke-width:0.5;"/><line style="stroke:#181818;stroke-width:0.5;" x1="183" x2="210" y1="700.7969" y2="700.7969"/><text fill="#000000" font-family="sans-serif" font-size="14" font-weight="bold" lengthAdjust="spacing" textLength="14" x="187" y="693.4951">io</text><path d="M173,766.5 L213,766.5 A3.75,3.75 0 0 1 215.5,769 L222.5,788.7969 L227,788.7969 A2.5,2.5 0 0 1 229.5,791.2969 L229.5,816.5938 A2.5,2.5 0 0 1 227,819.0938 L173,819.0938 A2.5,2.5 0 0 1 170.5,816.5938 L170.5,769 A2.5,2.5 0 0 1 173,766.5 " fill="#F1F1F1" style="stroke:#181818;stroke-width:0.5;"/><line style="stroke:#181818;stroke-width:0.5;" x1="170.5" x2="222.5" y1="788.7969" y2="788.7969"/><text fill="#000000" font-family="sans-serif" font-size="14" font-weight="bold" lengthAdjust="spacing" textLength="39" x="174.5" y="781.4951">math</text><path d="M180.5,854.5 L205.5,854.5 A3.75,3.75 0 0 1 208,857 L215,876.7969 L219.5,876.7969 A2.5,2.5 0 0 1 222,879.2969 L222,904.5938 A2.5,2.5 0 0 1 219.5,907.0938 L180.5,907.0938 A2.5,2.5 0 0 1 178,904.5938 L178,857 A2.5,2.5 0 0 1 180.5,854.5 " fill="#F1F1F1" style="stroke:#181818;stroke-width:0.5;"/><line style="stroke:#181818;stroke-width:0.5;" x1="178" x2="215" y1="876.7969" y2="876.7969"/><text fill="#000000" font-family="sans-serif" font-size="14" font-weight="bold" lengthAdjust="spacing" textLength="24" x="182" y="869.4951">nio</text><path d="M160.5,942.5 L225.5,942.5 A3.75,3.75 0 0 1 228,945 L235,964.7969 L239.5,964.7969 A2.5,2.5 0 0 1 242,967.2969 L242,992.5938 A2.5,2.5 0 0 1 239.5,995.0938 L160.5,995.0938 A2.5,2.5 0 0 1 158,992.5938 L158,945 A2.5,2.5 0 0 1 160.5,942.5 " fill="#F1F1F1" style="stroke:#181818;stroke-width:0.5;"/><line style="stroke:#181818;stroke-width:0.5;" x1="158" x2="235" y1="964.7969" y2="964.7969"/><text fill="#000000" font-family="sans-serif" font-size="14" font-weight="bold" lengthAdjust="spacing" textLength="64" x="162" y="957.4951">security</text><path d="M175.5,1030.5 L210.5,1030.5 A3.75,3.75 0 0 1 213,1033 L220,1052.7969 L224.5,1052.7969 A2.5,2.5 0 0 1 227,1055.2969 L227,1080.5938 A2.5,2.5 0 0 1 224.5,1083.0938 L175.5,1083.0938 A2.5,2.5 0 0 1 173,1080.5938 L173,1033 A2.5,2.5 0 0 1 175.5,1030.5 " fill="#F1F1F1" style="stroke:#181818;stroke-width:0.5;"/><line style="stroke:#181818;stroke-width:0.5;" x1="173" x2="220" y1="1052.7969" y2="1052.7969"/><text fill="#000000" font-family="sans-serif" font-size="14" font-weight="bold" lengthAdjust="spacing" textLength="34" x="177" y="1045.4951">time</text><path d="M180.5,1118.5 L205.5,1118.5 A3.75,3.75 0 0 1 208,1121 L215,1140.7969 L219.5,1140.7969 A2.5,2.5 0 0 1 222,1143.2969 L222,1168.5938 A2.5,2.5 0 0 1 219.5,1171.0938 L180.5,1171.0938 A2.5,2.5 0 0 1 178,1168.5938 L178,1121 A2.5,2.5 0 0 1 180.5,1118.5 " fill="#F1F1F1" style="stroke:#181818;stroke-width:0.5;"/><line style="stroke:#181818;stroke-width:0.5;" x1="178" x2="215" y1="1140.7969" y2="1140.7969"/><text fill="#000000" font-family="sans-serif" font-size="14" font-weight="bold" lengthAdjust="spacing" textLength="24" x="182" y="1133.4951">util</text><path d="M167,533.5 L219,533.5 A3.75,3.75 0 0 1 221.5,536 L228.5,555.7969 L233,555.7969 A2.5,2.5 0 0 1 235.5,558.2969 L235.5,583.5938 A2.5,2.5 0 0 1 233,586.0938 L167,586.0938 A2.5,2.5 0 0 1 164.5,583.5938 L164.5,536 A2.5,2.5 0 0 1 167,533.5 " fill="#F1F1F1" style="stroke:#181818;stroke-width:0.5;"/><line style="stroke:#181818;stroke-width:0.5;" x1="164.5" x2="228.5" y1="555.7969" y2="555.7969"/><text fill="#000000" font-family="sans-serif" font-size="14" font-weight="bold" lengthAdjust="spacing" textLength="51" x="168.5" y="548.4951">crypto</text><path d="M167,100.5 L219,100.5 A3.75,3.75 0 0 1 221.5,103 L228.5,122.7969 L233,122.7969 A2.5,2.5 0 0 1 235.5,125.2969 L235.5,150.5938 A2.5,2.5 0 0 1 233,153.0938 L167,153.0938 A2.5,2.5 0 0 1 164.5,150.5938 L164.5,103 A2.5,2.5 0 0 1 167,100.5 " fill="#F1F1F1" style="stroke:#181818;stroke-width:0.5;"/><line style="stroke:#181818;stroke-width:0.5;" x1="164.5" x2="228.5" y1="122.7969" y2="122.7969"/><text fill="#000000" font-family="sans-serif" font-size="14" font-weight="bold" lengthAdjust="spacing" textLength="51" x="168.5" y="115.4951">crypto</text><path d="M181,188.5 L205,188.5 A3.75,3.75 0 0 1 207.5,191 L214.5,210.7969 L219,210.7969 A2.5,2.5 0 0 1 221.5,213.2969 L221.5,238.5938 A2.5,2.5 0 0 1 219,241.0938 L181,241.0938 A2.5,2.5 0 0 1 178.5,238.5938 L178.5,191 A2.5,2.5 0 0 1 181,188.5 " fill="#F1F1F1" style="stroke:#181818;stroke-width:0.5;"/><line style="stroke:#181818;stroke-width:0.5;" x1="178.5" x2="214.5" y1="210.7969" y2="210.7969"/><text fill="#000000" font-family="sans-serif" font-size="14" font-weight="bold" lengthAdjust="spacing" textLength="23" x="182.5" y="203.4951">jce</text><path d="M173,276.5 L213,276.5 A3.75,3.75 0 0 1 215.5,279 L222.5,298.7969 L227,298.7969 A2.5,2.5 0 0 1 229.5,301.2969 L229.5,326.5938 A2.5,2.5 0 0 1 227,329.0938 L173,329.0938 A2.5,2.5 0 0 1 170.5,326.5938 L170.5,279 A2.5,2.5 0 0 1 173,276.5 " fill="#F1F1F1" style="stroke:#181818;stroke-width:0.5;"/><line style="stroke:#181818;stroke-width:0.5;" x1="170.5" x2="222.5" y1="298.7969" y2="298.7969"/><text fill="#000000" font-family="sans-serif" font-size="14" font-weight="bold" lengthAdjust="spacing" textLength="39" x="174.5" y="291.4951">math</text><path d="M180.5,364.5 L205.5,364.5 A3.75,3.75 0 0 1 208,367 L215,386.7969 L219.5,386.7969 A2.5,2.5 0 0 1 222,389.2969 L222,414.5938 A2.5,2.5 0 0 1 219.5,417.0938 L180.5,417.0938 A2.5,2.5 0 0 1 178,414.5938 L178,367 A2.5,2.5 0 0 1 180.5,364.5 " fill="#F1F1F1" style="stroke:#181818;stroke-width:0.5;"/><line style="stroke:#181818;stroke-width:0.5;" x1="178" x2="215" y1="386.7969" y2="386.7969"/><text fill="#000000" font-family="sans-serif" font-size="14" font-weight="bold" lengthAdjust="spacing" textLength="24" x="182" y="379.4951">util</text><!--link EstEIDToken to SmartCardReader--><g id="link_EstEIDToken_SmartCardReader"><path codeLine="49" d="M517.61,1410.73 C545.03,1406.09 578.05,1401.28 608,1399 C682.58,1393.32 762.0131,1396.2839 821.8631,1400.2439 " fill="none" id="EstEIDToken-to-SmartCardReader" style="stroke:#181818;stroke-width:1.0;stroke-dasharray:7.0,7.0;"/><polygon fill="#181818" points="827.85,1400.64,819.1337,1396.0545,822.8609,1400.3099,818.6056,1404.0371,827.85,1400.64" style="stroke:#181818;stroke-width:1.0;"/></g><!--link EstEIDToken to AlgorithmUtils--><g id="link_EstEIDToken_AlgorithmUtils"><path codeLine="50" d="M517.67,1441.7 C528.84,1447.5 539.62,1454.84 548,1464 C600.93,1521.91 559.49,1568.35 608,1630 C612.95,1636.29 614.3585,1638.3054 620.8885,1643.2554 " fill="none" id="EstEIDToken-to-AlgorithmUtils" style="stroke:#181818;stroke-width:1.0;stroke-dasharray:7.0,7.0;"/><polygon fill="#181818" points="625.67,1646.88,620.9141,1638.2555,621.6854,1643.8595,616.0814,1644.6308,625.67,1646.88" style="stroke:#181818;stroke-width:1.0;"/></g><!--reverse link Token to EstEIDToken--><g id="link_Token_EstEIDToken"><path codeLine="51" d="M255.8411,1454.967 C297.2811,1448.147 347.21,1439.92 396.17,1431.85 " fill="none" id="Token-backto-EstEIDToken" style="stroke:#181818;stroke-width:1.0;"/><polygon fill="none" points="238.08,1457.89,256.8154,1460.8873,254.8667,1449.0466,238.08,1457.89" style="stroke:#181818;stroke-width:1.0;"/></g><!--reverse link EstEIDToken to EstEIDv3d4--><g id="link_EstEIDToken_EstEIDv3d4"><path codeLine="52" d="M534.3808,1451.9031 C565.0008,1463.8931 585.28,1471.83 615.18,1483.54 " fill="none" id="EstEIDToken-backto-EstEIDv3d4" style="stroke:#181818;stroke-width:1.0;"/><polygon fill="none" points="517.62,1445.34,532.1931,1457.4901,536.5685,1446.3162,517.62,1445.34" style="stroke:#181818;stroke-width:1.0;"/></g><!--link EstEIDv3d4 to SmartCardReader--><g id="link_EstEIDv3d4_SmartCardReader"><path codeLine="53" d="M709.22,1480.91 C726.86,1470.18 748.51,1457.97 769,1449 C787.66,1440.83 802.694,1435.3323 822.214,1429.2223 " fill="none" id="EstEIDv3d4-to-SmartCardReader" style="stroke:#181818;stroke-width:1.0;stroke-dasharray:7.0,7.0;"/><polygon fill="#181818" points="827.94,1427.43,818.1561,1426.3011,823.1683,1428.9236,820.5458,1433.9358,827.94,1427.43" style="stroke:#181818;stroke-width:1.0;"/></g><!--reverse link EstEIDToken to EstEIDv3d5--><g id="link_EstEIDToken_EstEIDv3d5"><path codeLine="54" d="M533.727,1452.7936 C544.407,1458.2536 538.96,1456.53 548,1464 C583.08,1493 575.15,1515.49 608,1547 C614.33,1553.07 621.68,1558.81 629.05,1563.97 " fill="none" id="EstEIDToken-backto-EstEIDv3d5" style="stroke:#181818;stroke-width:1.0;"/><polygon fill="none" points="517.7,1444.6,530.9958,1458.1359,536.4582,1447.4512,517.7,1444.6" style="stroke:#181818;stroke-width:1.0;"/></g><!--link EstEIDv3d5 to SmartCardReader--><g id="link_EstEIDv3d5_SmartCardReader"><path codeLine="55" d="M726.72,1572.02 C738.76,1566.02 750.23,1557.91 758,1547 C783.43,1511.3 741.09,1482.79 769,1449 C783.7,1431.21 800.0111,1422.3976 822.1011,1416.3776 " fill="none" id="EstEIDv3d5-to-SmartCardReader" style="stroke:#181818;stroke-width:1.0;stroke-dasharray:7.0,7.0;"/><polygon fill="#181818" points="827.89,1414.8,818.1549,1413.3071,823.0659,1416.1147,820.2584,1421.0257,827.89,1414.8" style="stroke:#181818;stroke-width:1.0;"/></g><!--link ID1 to SmartCardReader--><g id="link_ID1_SmartCardReader"><path codeLine="56" d="M484.57,1492.97 C524.19,1475.12 595.45,1443.34 608,1440 C681.08,1420.56 761.2788,1412.885 821.7388,1409.605 " fill="none" id="ID1-to-SmartCardReader" style="stroke:#181818;stroke-width:1.0;stroke-dasharray:7.0,7.0;"/><polygon fill="#181818" points="827.73,1409.28,818.5265,1405.7734,822.7373,1409.5509,818.9599,1413.7617,827.73,1409.28" style="stroke:#181818;stroke-width:1.0;"/></g><!--reverse link Token to ID1--><g id="link_Token_ID1"><path codeLine="57" d="M255.8519,1472.8167 C307.9219,1481.1867 383.69,1493.37 429.4,1500.72 " fill="none" id="Token-backto-ID1" style="stroke:#181818;stroke-width:1.0;"/><polygon fill="none" points="238.08,1469.96,254.8996,1478.7407,256.8041,1466.8928,238.08,1469.96" style="stroke:#181818;stroke-width:1.0;"/></g><!--reverse link ID1 to ID1WithPace--><g id="link_ID1_ID1WithPace"><path codeLine="58" d="M501.7843,1516.6902 C521.7143,1522.7802 531.13,1528.55 548,1547 C600.93,1604.91 559.49,1651.35 608,1713 C612.95,1719.29 619.14,1724.93 625.67,1729.88 " fill="none" id="ID1-backto-ID1WithPace" style="stroke:#181818;stroke-width:1.0;"/><polygon fill="none" points="484.57,1511.43,500.0309,1522.4282,503.5376,1510.9521,484.57,1511.43" style="stroke:#181818;stroke-width:1.0;"/></g><!--link ID1WithPace to NfcSmartCardReader--><g id="link_ID1WithPace_NfcSmartCardReader"><path codeLine="59" d="M727.83,1729.98 C741.23,1724.49 755.55,1718.85 769,1714 C786.2,1707.79 799.0977,1703.4443 816.8577,1697.8443 " fill="none" id="ID1WithPace-to-NfcSmartCardReader" style="stroke:#181818;stroke-width:1.0;stroke-dasharray:7.0,7.0;"/><polygon fill="#181818" points="822.58,1696.04,812.7937,1694.9316,817.8114,1697.5436,815.1995,1702.5613,822.58,1696.04" style="stroke:#181818;stroke-width:1.0;"/></g><!--reverse link TokenWithPace to ID1WithPace--><g id="link_TokenWithPace_ID1WithPace"><path codeLine="60" d="M536.4286,1620.4912 C546.1386,1625.6312 539.76,1623.19 548,1630 C583.08,1659 575.15,1681.49 608,1713 C614.33,1719.07 621.68,1724.81 629.05,1729.97 " fill="none" id="TokenWithPace-backto-ID1WithPace" style="stroke:#181818;stroke-width:1.0;"/><polygon fill="none" points="520.52,1612.07,533.6215,1625.7941,539.2357,1615.1884,520.52,1612.07" style="stroke:#181818;stroke-width:1.0;"/></g><!--reverse link ApduEncryptor to ID1WithPace--><g id="link_ApduEncryptor_ID1WithPace"><path codeLine="61" d="M818.8502,1754.6351 C785.2202,1754.4951 762.89,1754.39 730.54,1754.25 " fill="none" id="ApduEncryptor-backto-ID1WithPace" style="stroke:#181818;stroke-width:1.0;"/><polygon fill="none" points="836.85,1754.71,818.8751,1748.6351,818.8252,1760.635,836.85,1754.71" style="stroke:#181818;stroke-width:1.0;"/></g><!--link Token to SmartCardReader--><g id="link_Token_SmartCardReader"><path codeLine="62" d="M236.77,1439.81 C268.98,1419.58 318.42,1392.29 366,1381 C527.04,1342.78 716.6888,1368.7026 822.0388,1389.0426 " fill="none" id="Token-to-SmartCardReader" style="stroke:#181818;stroke-width:1.0;stroke-dasharray:7.0,7.0;"/><polygon fill="#181818" points="827.93,1390.18,819.8515,1384.5464,823.0207,1389.2322,818.3349,1392.4013,827.93,1390.18" style="stroke:#181818;stroke-width:1.0;"/></g><!--link TokenWithPace to NfcSmartCardReader--><g id="link_TokenWithPace_NfcSmartCardReader"><path codeLine="63" d="M521.94,1563.93 C531.16,1559.06 540.16,1553.42 548,1547 C583.22,1518.16 567.47,1484.71 608,1464 C667.36,1433.66 709.44,1418.32 758,1464 C787.19,1491.46 742.77,1613.7 769,1644 C781.22,1658.11 792.7032,1664.799 810.8632,1669.259 " fill="none" id="TokenWithPace-to-NfcSmartCardReader" style="stroke:#181818;stroke-width:1.0;stroke-dasharray:7.0,7.0;"/><polygon fill="#181818" points="816.69,1670.69,808.9038,1664.6589,811.8343,1669.4975,806.9957,1672.428,816.69,1670.69" style="stroke:#181818;stroke-width:1.0;"/></g><!--reverse link Token to TokenWithPace--><g id="link_Token_TokenWithPace"><path codeLine="64" d="M254.1632,1491.4205 C287.4732,1508.5205 321.75,1525.8 366,1547 C377.61,1552.56 390.15,1558.39 402.06,1563.84 " fill="none" id="Token-backto-TokenWithPace" style="stroke:#181818;stroke-width:1.0;"/><polygon fill="none" points="238.15,1483.2,251.423,1496.7583,256.9034,1486.0828,238.15,1483.2" style="stroke:#181818;stroke-width:1.0;"/></g><!--SRC=[hLNBJiCm4BpdAopkM4B03LL290SEe0eAd1TdaneIEx8tg1NmxzYjW2IYTbfogxUpazc7nnKMn4Wp8yibiLmQ52IrIX9ujcH041CLMCiGkP70KrdAL0ikSm4cvvcbx3fTw5TKunBcQAnMKAL04CcmDHZoIGOXHyFl_VdAdUysvoJqcSkgr4RIiduWMTaWz4hd-8X65bA0hpnR2MmsBOWN_dQQdus3dGTXr-b9xFzku-PWRAG1BkF9rJy7WM5SxZiwhcPFjcYLmYg27qxkiidRExIDLXRtJ1qCVSziLGX-MuZXvYH90-8LIcH7B_06Hmmiyp_OnKMs8ZIkpRFPUyBODqngzlxPETT0otv43I4MHUisSDsFagon7sdTWlh8vq3KwaVLgYUBTNK9isv83zArAVcpRfLO2x1KuPZqtzYBm5Yj7ScesdhNlK93sqk5YtM3GQYxWXkCL4vduTPi1t1hDADGFzk_4nrPjHjGhbWpFjylcz_qJ6txwlSiwfgCyzc-ndSGwT_66ASwRflZZrbm7Z6737Dqdv0eqyJTyiOycRhpwTGvzvwMxE0fTjwHC8b_mk8K8uhQuTd_bDVtX4F9ubS-yFNf9jehPlAUzjdZNVq2]--></g></svg>