<?xml version="1.0" encoding="us-ascii" standalone="no"?><svg xmlns="http://www.w3.org/2000/svg" xmlns:xlink="http://www.w3.org/1999/xlink" contentStyleType="text/css" height="2634px" preserveAspectRatio="none" style="width:1757px;height:2634px;background:#FFFFFF;" version="1.1" viewBox="0 0 1757 2634" width="1757px" zoomAndPan="magnify"><defs/><g><!--cluster ee--><g id="cluster_ee"><path d="M8.5,539 L29.5,539 A3.75,3.75 0 0 1 32,541.5 L39,561.2969 L1747.5,561.2969 A2.5,2.5 0 0 1 1750,563.7969 L1750,2624.5 A2.5,2.5 0 0 1 1747.5,2627 L8.5,2627 A2.5,2.5 0 0 1 6,2624.5 L6,541.5 A2.5,2.5 0 0 1 8.5,539 " fill="none" style="stroke:#000000;stroke-width:1.5;"/><line style="stroke:#000000;stroke-width:1.5;" x1="6" x2="39" y1="561.2969" y2="561.2969"/><text fill="#000000" font-family="sans-serif" font-size="14" font-weight="bold" lengthAdjust="spacing" textLength="20" x="10" y="553.9951">ee</text></g><!--cluster ria--><g id="cluster_ria"><path d="M32.5,582 L53.5,582 A3.75,3.75 0 0 1 56,584.5 L63,604.2969 L1723.5,604.2969 A2.5,2.5 0 0 1 1726,606.7969 L1726,2600.5 A2.5,2.5 0 0 1 1723.5,2603 L32.5,2603 A2.5,2.5 0 0 1 30,2600.5 L30,584.5 A2.5,2.5 0 0 1 32.5,582 " fill="none" style="stroke:#000000;stroke-width:1.5;"/><line style="stroke:#000000;stroke-width:1.5;" x1="30" x2="63" y1="604.2969" y2="604.2969"/><text fill="#000000" font-family="sans-serif" font-size="14" font-weight="bold" lengthAdjust="spacing" textLength="20" x="34" y="596.9951">ria</text></g><!--cluster DigiDoc--><g id="cluster_DigiDoc"><path d="M56.5,625 L116.5,625 A3.75,3.75 0 0 1 119,627.5 L126,647.2969 L1699.5,647.2969 A2.5,2.5 0 0 1 1702,649.7969 L1702,2576.5 A2.5,2.5 0 0 1 1699.5,2579 L56.5,2579 A2.5,2.5 0 0 1 54,2576.5 L54,627.5 A2.5,2.5 0 0 1 56.5,625 " fill="none" style="stroke:#000000;stroke-width:1.5;"/><line style="stroke:#000000;stroke-width:1.5;" x1="54" x2="126" y1="647.2969" y2="647.2969"/><text fill="#000000" font-family="sans-serif" font-size="14" font-weight="bold" lengthAdjust="spacing" textLength="59" x="58" y="639.9951">DigiDoc</text></g><!--cluster smartcardreader--><g id="cluster_smartcardreader"><path d="M80.5,668 L214.5,668 A3.75,3.75 0 0 1 217,670.5 L224,690.2969 L1675.5,690.2969 A2.5,2.5 0 0 1 1678,692.7969 L1678,2490.5 A2.5,2.5 0 0 1 1675.5,2493 L80.5,2493 A2.5,2.5 0 0 1 78,2490.5 L78,670.5 A2.5,2.5 0 0 1 80.5,668 " fill="none" style="stroke:#000000;stroke-width:1.5;"/><line style="stroke:#000000;stroke-width:1.5;" x1="78" x2="224" y1="690.2969" y2="690.2969"/><text fill="#000000" font-family="sans-serif" font-size="14" font-weight="bold" lengthAdjust="spacing" textLength="133" x="82" y="682.9951">smartcardreader</text></g><!--cluster usb--><g id="cluster_usb"><path d="M104.5,767 L134.5,767 A3.75,3.75 0 0 1 137,769.5 L144,789.2969 L997,789.2969 A2.5,2.5 0 0 1 999.5,791.7969 L999.5,1784.5 A2.5,2.5 0 0 1 997,1787 L104.5,1787 A2.5,2.5 0 0 1 102,1784.5 L102,769.5 A2.5,2.5 0 0 1 104.5,767 " fill="none" style="stroke:#000000;stroke-width:1.5;"/><line style="stroke:#000000;stroke-width:1.5;" x1="102" x2="144" y1="789.2969" y2="789.2969"/><text fill="#000000" font-family="sans-serif" font-size="14" font-weight="bold" lengthAdjust="spacing" textLength="29" x="106" y="781.9951">usb</text></g><!--cluster com--><g id="cluster_com"><path d="M797,810 L831,810 A3.75,3.75 0 0 1 833.5,812.5 L840.5,832.2969 L907,832.2969 A2.5,2.5 0 0 1 909.5,834.7969 L909.5,1016.5 A2.5,2.5 0 0 1 907,1019 L797,1019 A2.5,2.5 0 0 1 794.5,1016.5 L794.5,812.5 A2.5,2.5 0 0 1 797,810 " fill="none" style="stroke:#000000;stroke-width:1.5;"/><line style="stroke:#000000;stroke-width:1.5;" x1="794.5" x2="840.5" y1="832.2969" y2="832.2969"/><text fill="#000000" font-family="sans-serif" font-size="14" font-weight="bold" lengthAdjust="spacing" textLength="33" x="798.5" y="824.9951">com</text><text fill="#000000" font-family="sans-serif" font-size="14" font-style="italic" lengthAdjust="spacing" textLength="74" x="819" y="847.292">&#171;External&#187;</text></g><!--cluster android--><g id="cluster_android"><path d="M731,1043 L792,1043 A3.75,3.75 0 0 1 794.5,1045.5 L801.5,1065.2969 L973,1065.2969 A2.5,2.5 0 0 1 975.5,1067.7969 L975.5,1760.5 A2.5,2.5 0 0 1 973,1763 L731,1763 A2.5,2.5 0 0 1 728.5,1760.5 L728.5,1045.5 A2.5,2.5 0 0 1 731,1043 " fill="none" style="stroke:#000000;stroke-width:1.5;"/><line style="stroke:#000000;stroke-width:1.5;" x1="728.5" x2="801.5" y1="1065.2969" y2="1065.2969"/><text fill="#000000" font-family="sans-serif" font-size="14" font-weight="bold" lengthAdjust="spacing" textLength="60" x="732.5" y="1057.9951">android</text></g><!--cluster hardware--><g id="cluster_hardware"><path d="M755,1086 L832,1086 A3.75,3.75 0 0 1 834.5,1088.5 L841.5,1108.2969 L949,1108.2969 A2.5,2.5 0 0 1 951.5,1110.7969 L951.5,1348.5 A2.5,2.5 0 0 1 949,1351 L755,1351 A2.5,2.5 0 0 1 752.5,1348.5 L752.5,1088.5 A2.5,2.5 0 0 1 755,1086 " fill="none" style="stroke:#000000;stroke-width:1.5;"/><line style="stroke:#000000;stroke-width:1.5;" x1="752.5" x2="841.5" y1="1108.2969" y2="1108.2969"/><text fill="#000000" font-family="sans-serif" font-size="14" font-weight="bold" lengthAdjust="spacing" textLength="76" x="756.5" y="1100.9951">hardware</text></g><!--cluster usb--><g id="cluster_usb"><path d="M779,1129 L809,1129 A3.75,3.75 0 0 1 811.5,1131.5 L818.5,1151.2969 L925,1151.2969 A2.5,2.5 0 0 1 927.5,1153.7969 L927.5,1324.5 A2.5,2.5 0 0 1 925,1327 L779,1327 A2.5,2.5 0 0 1 776.5,1324.5 L776.5,1131.5 A2.5,2.5 0 0 1 779,1129 " fill="none" style="stroke:#000000;stroke-width:1.5;"/><line style="stroke:#000000;stroke-width:1.5;" x1="776.5" x2="818.5" y1="1151.2969" y2="1151.2969"/><text fill="#000000" font-family="sans-serif" font-size="14" font-weight="bold" lengthAdjust="spacing" textLength="29" x="780.5" y="1143.9951">usb</text><text fill="#000000" font-family="sans-serif" font-size="14" font-style="italic" lengthAdjust="spacing" textLength="74" x="819" y="1166.292">&#171;External&#187;</text></g><!--cluster content--><g id="cluster_content"><path d="M757.5,1375 L819.5,1375 A3.75,3.75 0 0 1 822,1377.5 L829,1397.2969 L946.5,1397.2969 A2.5,2.5 0 0 1 949,1399.7969 L949,1736.5 A2.5,2.5 0 0 1 946.5,1739 L757.5,1739 A2.5,2.5 0 0 1 755,1736.5 L755,1377.5 A2.5,2.5 0 0 1 757.5,1375 " fill="none" style="stroke:#000000;stroke-width:1.5;"/><line style="stroke:#000000;stroke-width:1.5;" x1="755" x2="829" y1="1397.2969" y2="1397.2969"/><text fill="#000000" font-family="sans-serif" font-size="14" font-weight="bold" lengthAdjust="spacing" textLength="61" x="759" y="1389.9951">content</text><text fill="#000000" font-family="sans-serif" font-size="14" font-style="italic" lengthAdjust="spacing" textLength="74" x="819" y="1412.292">&#171;External&#187;</text></g><!--cluster nfc--><g id="cluster_nfc"><path d="M1065.5,833 L1091.5,833 A3.75,3.75 0 0 1 1094,835.5 L1101,855.2969 L1651.5,855.2969 A2.5,2.5 0 0 1 1654,857.7969 L1654,1379.5 A2.5,2.5 0 0 1 1651.5,1382 L1065.5,1382 A2.5,2.5 0 0 1 1063,1379.5 L1063,835.5 A2.5,2.5 0 0 1 1065.5,833 " fill="none" style="stroke:#000000;stroke-width:1.5;"/><line style="stroke:#000000;stroke-width:1.5;" x1="1063" x2="1101" y1="855.2969" y2="855.2969"/><text fill="#000000" font-family="sans-serif" font-size="14" font-weight="bold" lengthAdjust="spacing" textLength="25" x="1067" y="847.9951">nfc</text></g><!--cluster android--><g id="cluster_android"><path d="M1333.5,876 L1394.5,876 A3.75,3.75 0 0 1 1397,878.5 L1404,898.2969 L1627.5,898.2969 A2.5,2.5 0 0 1 1630,900.7969 L1630,1355.5 A2.5,2.5 0 0 1 1627.5,1358 L1333.5,1358 A2.5,2.5 0 0 1 1331,1355.5 L1331,878.5 A2.5,2.5 0 0 1 1333.5,876 " fill="none" style="stroke:#000000;stroke-width:1.5;"/><line style="stroke:#000000;stroke-width:1.5;" x1="1331" x2="1404" y1="898.2969" y2="898.2969"/><text fill="#000000" font-family="sans-serif" font-size="14" font-weight="bold" lengthAdjust="spacing" textLength="60" x="1335" y="890.9951">android</text></g><!--cluster nfc--><g id="cluster_nfc"><path d="M1357.5,919 L1383.5,919 A3.75,3.75 0 0 1 1386,921.5 L1393,941.2969 L1603.5,941.2969 A2.5,2.5 0 0 1 1606,943.7969 L1606,1331.5 A2.5,2.5 0 0 1 1603.5,1334 L1357.5,1334 A2.5,2.5 0 0 1 1355,1331.5 L1355,921.5 A2.5,2.5 0 0 1 1357.5,919 " fill="none" style="stroke:#000000;stroke-width:1.5;"/><line style="stroke:#000000;stroke-width:1.5;" x1="1355" x2="1393" y1="941.2969" y2="941.2969"/><text fill="#000000" font-family="sans-serif" font-size="14" font-weight="bold" lengthAdjust="spacing" textLength="25" x="1359" y="933.9951">nfc</text><text fill="#000000" font-family="sans-serif" font-size="14" font-style="italic" lengthAdjust="spacing" textLength="74" x="1447.5" y="956.292">&#171;External&#187;</text></g><!--cluster tech--><g id="cluster_tech"><path d="M1426.5,978 L1462.5,978 A3.75,3.75 0 0 1 1465,980.5 L1472,1000.2969 L1534.5,1000.2969 A2.5,2.5 0 0 1 1537,1002.7969 L1537,1074.5 A2.5,2.5 0 0 1 1534.5,1077 L1426.5,1077 A2.5,2.5 0 0 1 1424,1074.5 L1424,980.5 A2.5,2.5 0 0 1 1426.5,978 " fill="none" style="stroke:#000000;stroke-width:1.5;"/><line style="stroke:#000000;stroke-width:1.5;" x1="1424" x2="1472" y1="1000.2969" y2="1000.2969"/><text fill="#000000" font-family="sans-serif" font-size="14" font-weight="bold" lengthAdjust="spacing" textLength="35" x="1428" y="992.9951">tech</text></g><!--cluster NfcAdapter--><g id="cluster_NfcAdapter"><path d="M1389.5,1168 L1479.5,1168 A3.75,3.75 0 0 1 1482,1170.5 L1489,1190.2969 L1571.5,1190.2969 A2.5,2.5 0 0 1 1574,1192.7969 L1574,1299.5 A2.5,2.5 0 0 1 1571.5,1302 L1389.5,1302 A2.5,2.5 0 0 1 1387,1299.5 L1387,1170.5 A2.5,2.5 0 0 1 1389.5,1168 " fill="none" style="stroke:#000000;stroke-width:1.5;"/><line style="stroke:#000000;stroke-width:1.5;" x1="1387" x2="1489" y1="1190.2969" y2="1190.2969"/><text fill="#000000" font-family="sans-serif" font-size="14" font-weight="bold" lengthAdjust="spacing" textLength="89" x="1391" y="1182.9951">NfcAdapter</text></g><!--cluster io--><g id="cluster_io"><path d="M667.5,1987 L682.5,1987 A3.75,3.75 0 0 1 685,1989.5 L692,2009.2969 L1036.5,2009.2969 A2.5,2.5 0 0 1 1039,2011.7969 L1039,2466.5 A2.5,2.5 0 0 1 1036.5,2469 L667.5,2469 A2.5,2.5 0 0 1 665,2466.5 L665,1989.5 A2.5,2.5 0 0 1 667.5,1987 " fill="none" style="stroke:#000000;stroke-width:1.5;"/><line style="stroke:#000000;stroke-width:1.5;" x1="665" x2="692" y1="2009.2969" y2="2009.2969"/><text fill="#000000" font-family="sans-serif" font-size="14" font-weight="bold" lengthAdjust="spacing" textLength="14" x="669" y="2001.9951">io</text></g><!--cluster reactivex--><g id="cluster_reactivex"><path d="M691.5,2030 L765.5,2030 A3.75,3.75 0 0 1 768,2032.5 L775,2052.2969 L1012.5,2052.2969 A2.5,2.5 0 0 1 1015,2054.7969 L1015,2442.5 A2.5,2.5 0 0 1 1012.5,2445 L691.5,2445 A2.5,2.5 0 0 1 689,2442.5 L689,2032.5 A2.5,2.5 0 0 1 691.5,2030 " fill="none" style="stroke:#000000;stroke-width:1.5;"/><line style="stroke:#000000;stroke-width:1.5;" x1="689" x2="775" y1="2052.2969" y2="2052.2969"/><text fill="#000000" font-family="sans-serif" font-size="14" font-weight="bold" lengthAdjust="spacing" textLength="73" x="693" y="2044.9951">reactivex</text></g><!--cluster rxjava3--><g id="cluster_rxjava3"><path d="M715.5,2073 L773.5,2073 A3.75,3.75 0 0 1 776,2075.5 L783,2095.2969 L988.5,2095.2969 A2.5,2.5 0 0 1 991,2097.7969 L991,2418.5 A2.5,2.5 0 0 1 988.5,2421 L715.5,2421 A2.5,2.5 0 0 1 713,2418.5 L713,2075.5 A2.5,2.5 0 0 1 715.5,2073 " fill="none" style="stroke:#000000;stroke-width:1.5;"/><line style="stroke:#000000;stroke-width:1.5;" x1="713" x2="783" y1="2095.2969" y2="2095.2969"/><text fill="#000000" font-family="sans-serif" font-size="14" font-weight="bold" lengthAdjust="spacing" textLength="57" x="717" y="2087.9951">rxjava3</text></g><!--cluster core--><g id="cluster_core"><path d="M739.5,2116 L776.5,2116 A3.75,3.75 0 0 1 779,2118.5 L786,2138.2969 L964.5,2138.2969 A2.5,2.5 0 0 1 967,2140.7969 L967,2394.5 A2.5,2.5 0 0 1 964.5,2397 L739.5,2397 A2.5,2.5 0 0 1 737,2394.5 L737,2118.5 A2.5,2.5 0 0 1 739.5,2116 " fill="none" style="stroke:#000000;stroke-width:1.5;"/><line style="stroke:#000000;stroke-width:1.5;" x1="737" x2="786" y1="2138.2969" y2="2138.2969"/><text fill="#000000" font-family="sans-serif" font-size="14" font-weight="bold" lengthAdjust="spacing" textLength="36" x="741" y="2130.9951">core</text><text fill="#000000" font-family="sans-serif" font-size="14" font-style="italic" lengthAdjust="spacing" textLength="74" x="819" y="2153.292">&#171;External&#187;</text></g><!--cluster android--><g id="cluster_android"><path d="M1378.5,1527 L1439.5,1527 A3.75,3.75 0 0 1 1442,1529.5 L1449,1549.2969 L1582.5,1549.2969 A2.5,2.5 0 0 1 1585,1551.7969 L1585,1789.5 A2.5,2.5 0 0 1 1582.5,1792 L1378.5,1792 A2.5,2.5 0 0 1 1376,1789.5 L1376,1529.5 A2.5,2.5 0 0 1 1378.5,1527 " fill="none" style="stroke:#000000;stroke-width:1.5;"/><line style="stroke:#000000;stroke-width:1.5;" x1="1376" x2="1449" y1="1549.2969" y2="1549.2969"/><text fill="#000000" font-family="sans-serif" font-size="14" font-weight="bold" lengthAdjust="spacing" textLength="60" x="1380" y="1541.9951">android</text><text fill="#000000" font-family="sans-serif" font-size="14" font-style="italic" lengthAdjust="spacing" textLength="74" x="1447.5" y="1564.292">&#171;External&#187;</text></g><!--cluster app--><g id="cluster_app"><path d="M1402.5,1586 L1432.5,1586 A3.75,3.75 0 0 1 1435,1588.5 L1442,1608.2969 L1558.5,1608.2969 A2.5,2.5 0 0 1 1561,1610.7969 L1561,1765.5 A2.5,2.5 0 0 1 1558.5,1768 L1402.5,1768 A2.5,2.5 0 0 1 1400,1765.5 L1400,1588.5 A2.5,2.5 0 0 1 1402.5,1586 " fill="none" style="stroke:#000000;stroke-width:1.5;"/><line style="stroke:#000000;stroke-width:1.5;" x1="1400" x2="1442" y1="1608.2969" y2="1608.2969"/><text fill="#000000" font-family="sans-serif" font-size="14" font-weight="bold" lengthAdjust="spacing" textLength="29" x="1404" y="1600.9951">app</text></g><!--cluster java--><g id="cluster_java"><path d="M152.5,218 L184.5,218 A3.75,3.75 0 0 1 187,220.5 L194,240.2969 L263.5,240.2969 A2.5,2.5 0 0 1 266,242.7969 L266,512.5 A2.5,2.5 0 0 1 263.5,515 L152.5,515 A2.5,2.5 0 0 1 150,512.5 L150,220.5 A2.5,2.5 0 0 1 152.5,218 " fill="none" style="stroke:#000000;stroke-width:1.5;"/><line style="stroke:#000000;stroke-width:1.5;" x1="150" x2="194" y1="240.2969" y2="240.2969"/><text fill="#000000" font-family="sans-serif" font-size="14" font-weight="bold" lengthAdjust="spacing" textLength="31" x="154" y="232.9951">java</text><text fill="#000000" font-family="sans-serif" font-size="14" font-style="italic" lengthAdjust="spacing" textLength="74" x="175" y="255.292">&#171;External&#187;</text></g><!--cluster org--><g id="cluster_org"><path d="M126.5,6 L154.5,6 A3.75,3.75 0 0 1 157,8.5 L164,28.2969 L290.5,28.2969 A2.5,2.5 0 0 1 293,30.7969 L293,191.5 A2.5,2.5 0 0 1 290.5,194 L126.5,194 A2.5,2.5 0 0 1 124,191.5 L124,8.5 A2.5,2.5 0 0 1 126.5,6 " fill="none" style="stroke:#000000;stroke-width:1.5;"/><line style="stroke:#000000;stroke-width:1.5;" x1="124" x2="164" y1="28.2969" y2="28.2969"/><text fill="#000000" font-family="sans-serif" font-size="14" font-weight="bold" lengthAdjust="spacing" textLength="27" x="128" y="20.9951">org</text></g><!--cluster bouncycastle--><g id="cluster_bouncycastle"><path d="M150.5,49 L256.5,49 A3.75,3.75 0 0 1 259,51.5 L266,71.2969 L266.5,71.2969 A2.5,2.5 0 0 1 269,73.7969 L269,167.5 A2.5,2.5 0 0 1 266.5,170 L150.5,170 A2.5,2.5 0 0 1 148,167.5 L148,51.5 A2.5,2.5 0 0 1 150.5,49 " fill="none" style="stroke:#000000;stroke-width:1.5;"/><line style="stroke:#000000;stroke-width:1.5;" x1="148" x2="266" y1="71.2969" y2="71.2969"/><text fill="#000000" font-family="sans-serif" font-size="14" font-weight="bold" lengthAdjust="spacing" textLength="105" x="152" y="63.9951">bouncycastle</text><text fill="#000000" font-family="sans-serif" font-size="14" font-style="italic" lengthAdjust="spacing" textLength="74" x="175.5" y="86.292">&#171;External&#187;</text></g><path d="M119,2509.5 L283,2509.5 A3.75,3.75 0 0 1 285.5,2512 L292.5,2531.7969 L297,2531.7969 A2.5,2.5 0 0 1 299.5,2534.2969 L299.5,2559.5938 A2.5,2.5 0 0 1 297,2562.0938 L119,2562.0938 A2.5,2.5 0 0 1 116.5,2559.5938 L116.5,2512 A2.5,2.5 0 0 1 119,2509.5 " fill="#F1F1F1" style="stroke:#181818;stroke-width:0.5;"/><line style="stroke:#181818;stroke-width:0.5;" x1="116.5" x2="292.5" y1="2531.7969" y2="2531.7969"/><text fill="#000000" font-family="sans-serif" font-size="14" font-weight="bold" lengthAdjust="spacing" textLength="163" x="120.5" y="2524.4951">ee.ria.DigiDoc.idcard</text><!--class SmartCardReader--><g id="elem_SmartCardReader"><rect codeLine="6" fill="#F1F1F1" height="48" id="SmartCardReader" rx="2.5" ry="2.5" style="stroke:#181818;stroke-width:0.5;" width="154" x="775" y="703"/><ellipse cx="790" cy="719" fill="#A9DCDF" rx="11" ry="11" style="stroke:#181818;stroke-width:1.0;"/><path d="M790.1094,714.3438 L788.9531,719.4219 L791.2813,719.4219 L790.1094,714.3438 Z M788.625,712.1094 L791.6094,712.1094 L794.9688,724.5 L792.5156,724.5 L791.75,721.4375 L788.4688,721.4375 L787.7188,724.5 L785.2813,724.5 L788.625,712.1094 Z " fill="#000000"/><text fill="#000000" font-family="sans-serif" font-size="14" font-style="italic" lengthAdjust="spacing" textLength="122" x="804" y="723.8467">SmartCardReader</text><line style="stroke:#181818;stroke-width:0.5;" x1="776" x2="928" y1="735" y2="735"/><line style="stroke:#181818;stroke-width:0.5;" x1="776" x2="928" y1="743" y2="743"/></g><!--class ApduResponseException--><g id="elem_ApduResponseException"><rect codeLine="13" fill="#F1F1F1" height="48" id="ApduResponseException" rx="2.5" ry="2.5" style="stroke:#181818;stroke-width:0.5;" width="207" x="104.5" y="2001"/><ellipse cx="119.5" cy="2017" fill="#ADD1B2" rx="11" ry="11" style="stroke:#181818;stroke-width:1.0;"/><path d="M122.4688,2022.6406 Q121.8906,2022.9375 121.25,2023.0781 Q120.6094,2023.2344 119.9063,2023.2344 Q117.4063,2023.2344 116.0781,2021.5938 Q114.7656,2019.9375 114.7656,2016.8125 Q114.7656,2013.6875 116.0781,2012.0313 Q117.4063,2010.375 119.9063,2010.375 Q120.6094,2010.375 121.25,2010.5313 Q121.9063,2010.6875 122.4688,2010.9844 L122.4688,2013.7031 Q121.8438,2013.125 121.25,2012.8594 Q120.6563,2012.5781 120.0313,2012.5781 Q118.6875,2012.5781 118,2013.6563 Q117.3125,2014.7188 117.3125,2016.8125 Q117.3125,2018.9063 118,2019.9844 Q118.6875,2021.0469 120.0313,2021.0469 Q120.6563,2021.0469 121.25,2020.7813 Q121.8438,2020.5 122.4688,2019.9219 L122.4688,2022.6406 Z " fill="#000000"/><text fill="#000000" font-family="sans-serif" font-size="14" lengthAdjust="spacing" textLength="175" x="133.5" y="2021.8467">ApduResponseException</text><line style="stroke:#181818;stroke-width:0.5;" x1="105.5" x2="310.5" y1="2033" y2="2033"/><line style="stroke:#181818;stroke-width:0.5;" x1="105.5" x2="310.5" y1="2041" y2="2041"/></g><!--class BuildConfig--><g id="elem_BuildConfig"><rect codeLine="14" fill="#F1F1F1" height="48" id="BuildConfig" rx="2.5" ry="2.5" style="stroke:#181818;stroke-width:0.5;" width="110" x="797" y="1886"/><ellipse cx="812" cy="1902" fill="#ADD1B2" rx="11" ry="11" style="stroke:#181818;stroke-width:1.0;"/><path d="M814.9688,1907.6406 Q814.3906,1907.9375 813.75,1908.0781 Q813.1094,1908.2344 812.4063,1908.2344 Q809.9063,1908.2344 808.5781,1906.5938 Q807.2656,1904.9375 807.2656,1901.8125 Q807.2656,1898.6875 808.5781,1897.0313 Q809.9063,1895.375 812.4063,1895.375 Q813.1094,1895.375 813.75,1895.5313 Q814.4063,1895.6875 814.9688,1895.9844 L814.9688,1898.7031 Q814.3438,1898.125 813.75,1897.8594 Q813.1563,1897.5781 812.5313,1897.5781 Q811.1875,1897.5781 810.5,1898.6563 Q809.8125,1899.7188 809.8125,1901.8125 Q809.8125,1903.9063 810.5,1904.9844 Q811.1875,1906.0469 812.5313,1906.0469 Q813.1563,1906.0469 813.75,1905.7813 Q814.3438,1905.5 814.9688,1904.9219 L814.9688,1907.6406 Z " fill="#000000"/><text fill="#000000" font-family="sans-serif" font-size="14" lengthAdjust="spacing" textLength="78" x="826" y="1906.8467">BuildConfig</text><line style="stroke:#181818;stroke-width:0.5;" x1="798" x2="906" y1="1918" y2="1918"/><line style="stroke:#181818;stroke-width:0.5;" x1="798" x2="906" y1="1926" y2="1926"/></g><!--class SmartCardReaderException--><g id="elem_SmartCardReaderException"><rect codeLine="15" fill="#F1F1F1" height="48" id="SmartCardReaderException" rx="2.5" ry="2.5" style="stroke:#181818;stroke-width:0.5;" width="222" x="97" y="2198"/><ellipse cx="112" cy="2214" fill="#ADD1B2" rx="11" ry="11" style="stroke:#181818;stroke-width:1.0;"/><path d="M114.9688,2219.6406 Q114.3906,2219.9375 113.75,2220.0781 Q113.1094,2220.2344 112.4063,2220.2344 Q109.9063,2220.2344 108.5781,2218.5938 Q107.2656,2216.9375 107.2656,2213.8125 Q107.2656,2210.6875 108.5781,2209.0313 Q109.9063,2207.375 112.4063,2207.375 Q113.1094,2207.375 113.75,2207.5313 Q114.4063,2207.6875 114.9688,2207.9844 L114.9688,2210.7031 Q114.3438,2210.125 113.75,2209.8594 Q113.1563,2209.5781 112.5313,2209.5781 Q111.1875,2209.5781 110.5,2210.6563 Q109.8125,2211.7188 109.8125,2213.8125 Q109.8125,2215.9063 110.5,2216.9844 Q111.1875,2218.0469 112.5313,2218.0469 Q113.1563,2218.0469 113.75,2217.7813 Q114.3438,2217.5 114.9688,2216.9219 L114.9688,2219.6406 Z " fill="#000000"/><text fill="#000000" font-family="sans-serif" font-size="14" lengthAdjust="spacing" textLength="190" x="126" y="2218.8467">SmartCardReaderException</text><line style="stroke:#181818;stroke-width:0.5;" x1="98" x2="318" y1="2230" y2="2230"/><line style="stroke:#181818;stroke-width:0.5;" x1="98" x2="318" y1="2238" y2="2238"/></g><!--class SmartCardReaderStatus--><g id="elem_SmartCardReaderStatus"><rect codeLine="64" fill="#F1F1F1" height="48" id="SmartCardReaderStatus" rx="2.5" ry="2.5" style="stroke:#181818;stroke-width:0.5;" width="198" x="753" y="1803"/><ellipse cx="768" cy="1819" fill="#EB937F" rx="11" ry="11" style="stroke:#181818;stroke-width:1.0;"/><path d="M772.1094,1825 L764.3906,1825 L764.3906,1812.6094 L772.1094,1812.6094 L772.1094,1814.7656 L766.8438,1814.7656 L766.8438,1817.4375 L771.6094,1817.4375 L771.6094,1819.5938 L766.8438,1819.5938 L766.8438,1822.8438 L772.1094,1822.8438 L772.1094,1825 Z " fill="#000000"/><text fill="#000000" font-family="sans-serif" font-size="14" lengthAdjust="spacing" textLength="166" x="782" y="1823.8467">SmartCardReaderStatus</text><line style="stroke:#181818;stroke-width:0.5;" x1="754" x2="950" y1="1835" y2="1835"/><line style="stroke:#181818;stroke-width:0.5;" x1="754" x2="950" y1="1843" y2="1843"/></g><!--class SmartCardReaderManager--><g id="elem_SmartCardReaderManager"><rect codeLine="65" fill="#F1F1F1" height="48" id="SmartCardReaderManager" rx="2.5" ry="2.5" style="stroke:#181818;stroke-width:0.5;" width="214" x="101" y="1861"/><ellipse cx="116" cy="1877" fill="#B4A7E5" rx="11" ry="11" style="stroke:#181818;stroke-width:1.0;"/><path d="M111.9219,1872.7656 L111.9219,1870.6094 L119.3125,1870.6094 L119.3125,1872.7656 L116.8438,1872.7656 L116.8438,1880.8438 L119.3125,1880.8438 L119.3125,1883 L111.9219,1883 L111.9219,1880.8438 L114.3906,1880.8438 L114.3906,1872.7656 L111.9219,1872.7656 Z " fill="#000000"/><text fill="#000000" font-family="sans-serif" font-size="14" font-style="italic" lengthAdjust="spacing" textLength="182" x="130" y="1881.8467">SmartCardReaderManager</text><line style="stroke:#181818;stroke-width:0.5;" x1="102" x2="314" y1="1893" y2="1893"/><line style="stroke:#181818;stroke-width:0.5;" x1="102" x2="314" y1="1901" y2="1901"/></g><!--class UsbSmartCardReader--><g id="elem_UsbSmartCardReader"><rect codeLine="7" fill="#F1F1F1" height="48" id="UsbSmartCardReader" rx="2.5" ry="2.5" style="stroke:#181818;stroke-width:0.5;" width="180" x="118" y="1150"/><ellipse cx="133" cy="1166" fill="#A9DCDF" rx="11" ry="11" style="stroke:#181818;stroke-width:1.0;"/><path d="M133.1094,1161.3438 L131.9531,1166.4219 L134.2813,1166.4219 L133.1094,1161.3438 Z M131.625,1159.1094 L134.6094,1159.1094 L137.9688,1171.5 L135.5156,1171.5 L134.75,1168.4375 L131.4688,1168.4375 L130.7188,1171.5 L128.2813,1171.5 L131.625,1159.1094 Z " fill="#000000"/><text fill="#000000" font-family="sans-serif" font-size="14" font-style="italic" lengthAdjust="spacing" textLength="148" x="147" y="1170.8467">UsbSmartCardReader</text><line style="stroke:#181818;stroke-width:0.5;" x1="119" x2="297" y1="1182" y2="1182"/><line style="stroke:#181818;stroke-width:0.5;" x1="119" x2="297" y1="1190" y2="1190"/></g><!--class AcsUsbSmartCardReader--><g id="elem_AcsUsbSmartCardReader"><rect codeLine="18" fill="#F1F1F1" height="48" id="AcsUsbSmartCardReader" rx="2.5" ry="2.5" style="stroke:#181818;stroke-width:0.5;" width="206" x="411" y="1180"/><ellipse cx="426" cy="1196" fill="#ADD1B2" rx="11" ry="11" style="stroke:#181818;stroke-width:1.0;"/><path d="M428.9688,1201.6406 Q428.3906,1201.9375 427.75,1202.0781 Q427.1094,1202.2344 426.4063,1202.2344 Q423.9063,1202.2344 422.5781,1200.5938 Q421.2656,1198.9375 421.2656,1195.8125 Q421.2656,1192.6875 422.5781,1191.0313 Q423.9063,1189.375 426.4063,1189.375 Q427.1094,1189.375 427.75,1189.5313 Q428.4063,1189.6875 428.9688,1189.9844 L428.9688,1192.7031 Q428.3438,1192.125 427.75,1191.8594 Q427.1563,1191.5781 426.5313,1191.5781 Q425.1875,1191.5781 424.5,1192.6563 Q423.8125,1193.7188 423.8125,1195.8125 Q423.8125,1197.9063 424.5,1198.9844 Q425.1875,1200.0469 426.5313,1200.0469 Q427.1563,1200.0469 427.75,1199.7813 Q428.3438,1199.5 428.9688,1198.9219 L428.9688,1201.6406 Z " fill="#000000"/><text fill="#000000" font-family="sans-serif" font-size="14" lengthAdjust="spacing" textLength="174" x="440" y="1200.8467">AcsUsbSmartCardReader</text><line style="stroke:#181818;stroke-width:0.5;" x1="412" x2="616" y1="1212" y2="1212"/><line style="stroke:#181818;stroke-width:0.5;" x1="412" x2="616" y1="1220" y2="1220"/></g><!--class IdentivUsbSmartCardReader--><g id="elem_IdentivUsbSmartCardReader"><rect codeLine="19" fill="#F1F1F1" height="48" id="IdentivUsbSmartCardReader" rx="2.5" ry="2.5" style="stroke:#181818;stroke-width:0.5;" width="226" x="401" y="1263"/><ellipse cx="416" cy="1279" fill="#ADD1B2" rx="11" ry="11" style="stroke:#181818;stroke-width:1.0;"/><path d="M418.9688,1284.6406 Q418.3906,1284.9375 417.75,1285.0781 Q417.1094,1285.2344 416.4063,1285.2344 Q413.9063,1285.2344 412.5781,1283.5938 Q411.2656,1281.9375 411.2656,1278.8125 Q411.2656,1275.6875 412.5781,1274.0313 Q413.9063,1272.375 416.4063,1272.375 Q417.1094,1272.375 417.75,1272.5313 Q418.4063,1272.6875 418.9688,1272.9844 L418.9688,1275.7031 Q418.3438,1275.125 417.75,1274.8594 Q417.1563,1274.5781 416.5313,1274.5781 Q415.1875,1274.5781 414.5,1275.6563 Q413.8125,1276.7188 413.8125,1278.8125 Q413.8125,1280.9063 414.5,1281.9844 Q415.1875,1283.0469 416.5313,1283.0469 Q417.1563,1283.0469 417.75,1282.7813 Q418.3438,1282.5 418.9688,1281.9219 L418.9688,1284.6406 Z " fill="#000000"/><text fill="#000000" font-family="sans-serif" font-size="14" lengthAdjust="spacing" textLength="194" x="430" y="1283.8467">IdentivUsbSmartCardReader</text><line style="stroke:#181818;stroke-width:0.5;" x1="402" x2="626" y1="1295" y2="1295"/><line style="stroke:#181818;stroke-width:0.5;" x1="402" x2="626" y1="1303" y2="1303"/></g><!--class UsbSmartCardReaderManager--><g id="elem_UsbSmartCardReaderManager"><rect codeLine="20" fill="#F1F1F1" height="48" id="UsbSmartCardReaderManager" rx="2.5" ry="2.5" style="stroke:#181818;stroke-width:0.5;" width="241" x="393.5" y="1426"/><ellipse cx="408.5" cy="1442" fill="#ADD1B2" rx="11" ry="11" style="stroke:#181818;stroke-width:1.0;"/><path d="M411.4688,1447.6406 Q410.8906,1447.9375 410.25,1448.0781 Q409.6094,1448.2344 408.9063,1448.2344 Q406.4063,1448.2344 405.0781,1446.5938 Q403.7656,1444.9375 403.7656,1441.8125 Q403.7656,1438.6875 405.0781,1437.0313 Q406.4063,1435.375 408.9063,1435.375 Q409.6094,1435.375 410.25,1435.5313 Q410.9063,1435.6875 411.4688,1435.9844 L411.4688,1438.7031 Q410.8438,1438.125 410.25,1437.8594 Q409.6563,1437.5781 409.0313,1437.5781 Q407.6875,1437.5781 407,1438.6563 Q406.3125,1439.7188 406.3125,1441.8125 Q406.3125,1443.9063 407,1444.9844 Q407.6875,1446.0469 409.0313,1446.0469 Q409.6563,1446.0469 410.25,1445.7813 Q410.8438,1445.5 411.4688,1444.9219 L411.4688,1447.6406 Z " fill="#000000"/><text fill="#000000" font-family="sans-serif" font-size="14" lengthAdjust="spacing" textLength="209" x="422.5" y="1446.8467">UsbSmartCardReaderManager</text><line style="stroke:#181818;stroke-width:0.5;" x1="394.5" x2="633.5" y1="1458" y2="1458"/><line style="stroke:#181818;stroke-width:0.5;" x1="394.5" x2="633.5" y1="1466" y2="1466"/></g><!--class UsbSmartCardReaderOnSubscribe--><g id="elem_UsbSmartCardReaderOnSubscribe"><rect codeLine="21" fill="#F1F1F1" height="48" id="UsbSmartCardReaderOnSubscribe" rx="2.5" ry="2.5" style="stroke:#181818;stroke-width:0.5;" width="270" x="379" y="1592"/><ellipse cx="394" cy="1608" fill="#ADD1B2" rx="11" ry="11" style="stroke:#181818;stroke-width:1.0;"/><path d="M396.9688,1613.6406 Q396.3906,1613.9375 395.75,1614.0781 Q395.1094,1614.2344 394.4063,1614.2344 Q391.9063,1614.2344 390.5781,1612.5938 Q389.2656,1610.9375 389.2656,1607.8125 Q389.2656,1604.6875 390.5781,1603.0313 Q391.9063,1601.375 394.4063,1601.375 Q395.1094,1601.375 395.75,1601.5313 Q396.4063,1601.6875 396.9688,1601.9844 L396.9688,1604.7031 Q396.3438,1604.125 395.75,1603.8594 Q395.1563,1603.5781 394.5313,1603.5781 Q393.1875,1603.5781 392.5,1604.6563 Q391.8125,1605.7188 391.8125,1607.8125 Q391.8125,1609.9063 392.5,1610.9844 Q393.1875,1612.0469 394.5313,1612.0469 Q395.1563,1612.0469 395.75,1611.7813 Q396.3438,1611.5 396.9688,1610.9219 L396.9688,1613.6406 Z " fill="#000000"/><text fill="#000000" font-family="sans-serif" font-size="14" lengthAdjust="spacing" textLength="238" x="408" y="1612.8467">UsbSmartCardReaderOnSubscribe</text><line style="stroke:#181818;stroke-width:0.5;" x1="380" x2="648" y1="1624" y2="1624"/><line style="stroke:#181818;stroke-width:0.5;" x1="380" x2="648" y1="1632" y2="1632"/></g><path d="M831,861.5 L859,861.5 A3.75,3.75 0 0 1 861.5,864 L868.5,883.7969 L873,883.7969 A2.5,2.5 0 0 1 875.5,886.2969 L875.5,911.5938 A2.5,2.5 0 0 1 873,914.0938 L831,914.0938 A2.5,2.5 0 0 1 828.5,911.5938 L828.5,864 A2.5,2.5 0 0 1 831,861.5 " fill="#F1F1F1" style="stroke:#181818;stroke-width:0.5;"/><line style="stroke:#181818;stroke-width:0.5;" x1="828.5" x2="868.5" y1="883.7969" y2="883.7969"/><text fill="#000000" font-family="sans-serif" font-size="14" font-weight="bold" lengthAdjust="spacing" textLength="27" x="832.5" y="876.4951">acs</text><path d="M813,949.5 L877,949.5 A3.75,3.75 0 0 1 879.5,952 L886.5,971.7969 L891,971.7969 A2.5,2.5 0 0 1 893.5,974.2969 L893.5,999.5938 A2.5,2.5 0 0 1 891,1002.0938 L813,1002.0938 A2.5,2.5 0 0 1 810.5,999.5938 L810.5,952 A2.5,2.5 0 0 1 813,949.5 " fill="#F1F1F1" style="stroke:#181818;stroke-width:0.5;"/><line style="stroke:#181818;stroke-width:0.5;" x1="810.5" x2="886.5" y1="971.7969" y2="971.7969"/><text fill="#000000" font-family="sans-serif" font-size="14" font-weight="bold" lengthAdjust="spacing" textLength="63" x="814.5" y="964.4951">identive</text><!--class UsbDevice--><g id="elem_UsbDevice"><rect codeLine="46" fill="#F1F1F1" height="48" id="UsbDevice" rx="2.5" ry="2.5" style="stroke:#181818;stroke-width:0.5;" width="106" x="799" y="1180"/><ellipse cx="814" cy="1196" fill="#ADD1B2" rx="11" ry="11" style="stroke:#181818;stroke-width:1.0;"/><path d="M816.9688,1201.6406 Q816.3906,1201.9375 815.75,1202.0781 Q815.1094,1202.2344 814.4063,1202.2344 Q811.9063,1202.2344 810.5781,1200.5938 Q809.2656,1198.9375 809.2656,1195.8125 Q809.2656,1192.6875 810.5781,1191.0313 Q811.9063,1189.375 814.4063,1189.375 Q815.1094,1189.375 815.75,1189.5313 Q816.4063,1189.6875 816.9688,1189.9844 L816.9688,1192.7031 Q816.3438,1192.125 815.75,1191.8594 Q815.1563,1191.5781 814.5313,1191.5781 Q813.1875,1191.5781 812.5,1192.6563 Q811.8125,1193.7188 811.8125,1195.8125 Q811.8125,1197.9063 812.5,1198.9844 Q813.1875,1200.0469 814.5313,1200.0469 Q815.1563,1200.0469 815.75,1199.7813 Q816.3438,1199.5 816.9688,1198.9219 L816.9688,1201.6406 Z " fill="#000000"/><text fill="#000000" font-family="sans-serif" font-size="14" lengthAdjust="spacing" textLength="74" x="828" y="1200.8467">UsbDevice</text><line style="stroke:#181818;stroke-width:0.5;" x1="800" x2="904" y1="1212" y2="1212"/><line style="stroke:#181818;stroke-width:0.5;" x1="800" x2="904" y1="1220" y2="1220"/></g><!--class UsbManager--><g id="elem_UsbManager"><rect codeLine="47" fill="#F1F1F1" height="48" id="UsbManager" rx="2.5" ry="2.5" style="stroke:#181818;stroke-width:0.5;" width="119" x="792.5" y="1263"/><ellipse cx="807.5" cy="1279" fill="#ADD1B2" rx="11" ry="11" style="stroke:#181818;stroke-width:1.0;"/><path d="M810.4688,1284.6406 Q809.8906,1284.9375 809.25,1285.0781 Q808.6094,1285.2344 807.9063,1285.2344 Q805.4063,1285.2344 804.0781,1283.5938 Q802.7656,1281.9375 802.7656,1278.8125 Q802.7656,1275.6875 804.0781,1274.0313 Q805.4063,1272.375 807.9063,1272.375 Q808.6094,1272.375 809.25,1272.5313 Q809.9063,1272.6875 810.4688,1272.9844 L810.4688,1275.7031 Q809.8438,1275.125 809.25,1274.8594 Q808.6563,1274.5781 808.0313,1274.5781 Q806.6875,1274.5781 806,1275.6563 Q805.3125,1276.7188 805.3125,1278.8125 Q805.3125,1280.9063 806,1281.9844 Q806.6875,1283.0469 808.0313,1283.0469 Q808.6563,1283.0469 809.25,1282.7813 Q809.8438,1282.5 810.4688,1281.9219 L810.4688,1284.6406 Z " fill="#000000"/><text fill="#000000" font-family="sans-serif" font-size="14" lengthAdjust="spacing" textLength="87" x="821.5" y="1283.8467">UsbManager</text><line style="stroke:#181818;stroke-width:0.5;" x1="793.5" x2="910.5" y1="1295" y2="1295"/><line style="stroke:#181818;stroke-width:0.5;" x1="793.5" x2="910.5" y1="1303" y2="1303"/></g><!--class BroadcastReceiver--><g id="elem_BroadcastReceiver"><rect codeLine="51" fill="#F1F1F1" height="48" id="BroadcastReceiver" rx="2.5" ry="2.5" style="stroke:#181818;stroke-width:0.5;" width="162" x="771" y="1675"/><ellipse cx="786" cy="1691" fill="#ADD1B2" rx="11" ry="11" style="stroke:#181818;stroke-width:1.0;"/><path d="M788.9688,1696.6406 Q788.3906,1696.9375 787.75,1697.0781 Q787.1094,1697.2344 786.4063,1697.2344 Q783.9063,1697.2344 782.5781,1695.5938 Q781.2656,1693.9375 781.2656,1690.8125 Q781.2656,1687.6875 782.5781,1686.0313 Q783.9063,1684.375 786.4063,1684.375 Q787.1094,1684.375 787.75,1684.5313 Q788.4063,1684.6875 788.9688,1684.9844 L788.9688,1687.7031 Q788.3438,1687.125 787.75,1686.8594 Q787.1563,1686.5781 786.5313,1686.5781 Q785.1875,1686.5781 784.5,1687.6563 Q783.8125,1688.7188 783.8125,1690.8125 Q783.8125,1692.9063 784.5,1693.9844 Q785.1875,1695.0469 786.5313,1695.0469 Q787.1563,1695.0469 787.75,1694.7813 Q788.3438,1694.5 788.9688,1693.9219 L788.9688,1696.6406 Z " fill="#000000"/><text fill="#000000" font-family="sans-serif" font-size="14" lengthAdjust="spacing" textLength="130" x="800" y="1695.8467">BroadcastReceiver</text><line style="stroke:#181818;stroke-width:0.5;" x1="772" x2="932" y1="1707" y2="1707"/><line style="stroke:#181818;stroke-width:0.5;" x1="772" x2="932" y1="1715" y2="1715"/></g><!--class Context--><g id="elem_Context"><rect codeLine="52" fill="#F1F1F1" height="48" id="Context" rx="2.5" ry="2.5" style="stroke:#181818;stroke-width:0.5;" width="86" x="809" y="1426"/><ellipse cx="824" cy="1442" fill="#ADD1B2" rx="11" ry="11" style="stroke:#181818;stroke-width:1.0;"/><path d="M826.9688,1447.6406 Q826.3906,1447.9375 825.75,1448.0781 Q825.1094,1448.2344 824.4063,1448.2344 Q821.9063,1448.2344 820.5781,1446.5938 Q819.2656,1444.9375 819.2656,1441.8125 Q819.2656,1438.6875 820.5781,1437.0313 Q821.9063,1435.375 824.4063,1435.375 Q825.1094,1435.375 825.75,1435.5313 Q826.4063,1435.6875 826.9688,1435.9844 L826.9688,1438.7031 Q826.3438,1438.125 825.75,1437.8594 Q825.1563,1437.5781 824.5313,1437.5781 Q823.1875,1437.5781 822.5,1438.6563 Q821.8125,1439.7188 821.8125,1441.8125 Q821.8125,1443.9063 822.5,1444.9844 Q823.1875,1446.0469 824.5313,1446.0469 Q825.1563,1446.0469 825.75,1445.7813 Q826.3438,1445.5 826.9688,1444.9219 L826.9688,1447.6406 Z " fill="#000000"/><text fill="#000000" font-family="sans-serif" font-size="14" lengthAdjust="spacing" textLength="54" x="838" y="1446.8467">Context</text><line style="stroke:#181818;stroke-width:0.5;" x1="810" x2="894" y1="1458" y2="1458"/><line style="stroke:#181818;stroke-width:0.5;" x1="810" x2="894" y1="1466" y2="1466"/></g><!--class Intent--><g id="elem_Intent"><rect codeLine="53" fill="#F1F1F1" height="48" id="Intent" rx="2.5" ry="2.5" style="stroke:#181818;stroke-width:0.5;" width="72" x="816" y="1509"/><ellipse cx="831" cy="1525" fill="#ADD1B2" rx="11" ry="11" style="stroke:#181818;stroke-width:1.0;"/><path d="M833.9688,1530.6406 Q833.3906,1530.9375 832.75,1531.0781 Q832.1094,1531.2344 831.4063,1531.2344 Q828.9063,1531.2344 827.5781,1529.5938 Q826.2656,1527.9375 826.2656,1524.8125 Q826.2656,1521.6875 827.5781,1520.0313 Q828.9063,1518.375 831.4063,1518.375 Q832.1094,1518.375 832.75,1518.5313 Q833.4063,1518.6875 833.9688,1518.9844 L833.9688,1521.7031 Q833.3438,1521.125 832.75,1520.8594 Q832.1563,1520.5781 831.5313,1520.5781 Q830.1875,1520.5781 829.5,1521.6563 Q828.8125,1522.7188 828.8125,1524.8125 Q828.8125,1526.9063 829.5,1527.9844 Q830.1875,1529.0469 831.5313,1529.0469 Q832.1563,1529.0469 832.75,1528.7813 Q833.3438,1528.5 833.9688,1527.9219 L833.9688,1530.6406 Z " fill="#000000"/><text fill="#000000" font-family="sans-serif" font-size="14" lengthAdjust="spacing" textLength="40" x="845" y="1529.8467">Intent</text><line style="stroke:#181818;stroke-width:0.5;" x1="817" x2="887" y1="1541" y2="1541"/><line style="stroke:#181818;stroke-width:0.5;" x1="817" x2="887" y1="1549" y2="1549"/></g><!--class IntentFilter--><g id="elem_IntentFilter"><rect codeLine="54" fill="#F1F1F1" height="48" id="IntentFilter" rx="2.5" ry="2.5" style="stroke:#181818;stroke-width:0.5;" width="105" x="799.5" y="1592"/><ellipse cx="814.5" cy="1608" fill="#ADD1B2" rx="11" ry="11" style="stroke:#181818;stroke-width:1.0;"/><path d="M817.4688,1613.6406 Q816.8906,1613.9375 816.25,1614.0781 Q815.6094,1614.2344 814.9063,1614.2344 Q812.4063,1614.2344 811.0781,1612.5938 Q809.7656,1610.9375 809.7656,1607.8125 Q809.7656,1604.6875 811.0781,1603.0313 Q812.4063,1601.375 814.9063,1601.375 Q815.6094,1601.375 816.25,1601.5313 Q816.9063,1601.6875 817.4688,1601.9844 L817.4688,1604.7031 Q816.8438,1604.125 816.25,1603.8594 Q815.6563,1603.5781 815.0313,1603.5781 Q813.6875,1603.5781 813,1604.6563 Q812.3125,1605.7188 812.3125,1607.8125 Q812.3125,1609.9063 813,1610.9844 Q813.6875,1612.0469 815.0313,1612.0469 Q815.6563,1612.0469 816.25,1611.7813 Q816.8438,1611.5 817.4688,1610.9219 L817.4688,1613.6406 Z " fill="#000000"/><text fill="#000000" font-family="sans-serif" font-size="14" lengthAdjust="spacing" textLength="73" x="828.5" y="1612.8467">IntentFilter</text><line style="stroke:#181818;stroke-width:0.5;" x1="800.5" x2="903.5" y1="1624" y2="1624"/><line style="stroke:#181818;stroke-width:0.5;" x1="800.5" x2="903.5" y1="1632" y2="1632"/></g><!--class NfcSmartCardReader--><g id="elem_NfcSmartCardReader"><rect codeLine="16" fill="#F1F1F1" height="48" id="NfcSmartCardReader" rx="2.5" ry="2.5" style="stroke:#181818;stroke-width:0.5;" width="176" x="1109" y="1013"/><ellipse cx="1124" cy="1029" fill="#ADD1B2" rx="11" ry="11" style="stroke:#181818;stroke-width:1.0;"/><path d="M1126.9688,1034.6406 Q1126.3906,1034.9375 1125.75,1035.0781 Q1125.1094,1035.2344 1124.4063,1035.2344 Q1121.9063,1035.2344 1120.5781,1033.5938 Q1119.2656,1031.9375 1119.2656,1028.8125 Q1119.2656,1025.6875 1120.5781,1024.0313 Q1121.9063,1022.375 1124.4063,1022.375 Q1125.1094,1022.375 1125.75,1022.5313 Q1126.4063,1022.6875 1126.9688,1022.9844 L1126.9688,1025.7031 Q1126.3438,1025.125 1125.75,1024.8594 Q1125.1563,1024.5781 1124.5313,1024.5781 Q1123.1875,1024.5781 1122.5,1025.6563 Q1121.8125,1026.7188 1121.8125,1028.8125 Q1121.8125,1030.9063 1122.5,1031.9844 Q1123.1875,1033.0469 1124.5313,1033.0469 Q1125.1563,1033.0469 1125.75,1032.7813 Q1126.3438,1032.5 1126.9688,1031.9219 L1126.9688,1034.6406 Z " fill="#000000"/><text fill="#000000" font-family="sans-serif" font-size="14" lengthAdjust="spacing" textLength="144" x="1138" y="1033.8467">NfcSmartCardReader</text><line style="stroke:#181818;stroke-width:0.5;" x1="1110" x2="1284" y1="1045" y2="1045"/><line style="stroke:#181818;stroke-width:0.5;" x1="1110" x2="1284" y1="1053" y2="1053"/></g><!--class NfcSmartCardReaderManager--><g id="elem_NfcSmartCardReaderManager"><rect codeLine="17" fill="#F1F1F1" height="48" id="NfcSmartCardReaderManager" rx="2.5" ry="2.5" style="stroke:#181818;stroke-width:0.5;" width="236" x="1079" y="1223"/><ellipse cx="1094" cy="1239" fill="#ADD1B2" rx="11" ry="11" style="stroke:#181818;stroke-width:1.0;"/><path d="M1096.9688,1244.6406 Q1096.3906,1244.9375 1095.75,1245.0781 Q1095.1094,1245.2344 1094.4063,1245.2344 Q1091.9063,1245.2344 1090.5781,1243.5938 Q1089.2656,1241.9375 1089.2656,1238.8125 Q1089.2656,1235.6875 1090.5781,1234.0313 Q1091.9063,1232.375 1094.4063,1232.375 Q1095.1094,1232.375 1095.75,1232.5313 Q1096.4063,1232.6875 1096.9688,1232.9844 L1096.9688,1235.7031 Q1096.3438,1235.125 1095.75,1234.8594 Q1095.1563,1234.5781 1094.5313,1234.5781 Q1093.1875,1234.5781 1092.5,1235.6563 Q1091.8125,1236.7188 1091.8125,1238.8125 Q1091.8125,1240.9063 1092.5,1241.9844 Q1093.1875,1243.0469 1094.5313,1243.0469 Q1095.1563,1243.0469 1095.75,1242.7813 Q1096.3438,1242.5 1096.9688,1241.9219 L1096.9688,1244.6406 Z " fill="#000000"/><text fill="#000000" font-family="sans-serif" font-size="14" lengthAdjust="spacing" textLength="204" x="1108" y="1243.8467">NfcSmartCardReaderManager</text><line style="stroke:#181818;stroke-width:0.5;" x1="1080" x2="1314" y1="1255" y2="1255"/><line style="stroke:#181818;stroke-width:0.5;" x1="1080" x2="1314" y1="1263" y2="1263"/></g><!--class ApduEncryptor--><g id="elem_ApduEncryptor"><rect codeLine="66" fill="#F1F1F1" height="48" id="ApduEncryptor" rx="2.5" ry="2.5" style="stroke:#181818;stroke-width:0.5;" width="136" x="1129" y="1312"/><ellipse cx="1144" cy="1328" fill="#B4A7E5" rx="11" ry="11" style="stroke:#181818;stroke-width:1.0;"/><path d="M1139.9219,1323.7656 L1139.9219,1321.6094 L1147.3125,1321.6094 L1147.3125,1323.7656 L1144.8438,1323.7656 L1144.8438,1331.8438 L1147.3125,1331.8438 L1147.3125,1334 L1139.9219,1334 L1139.9219,1331.8438 L1142.3906,1331.8438 L1142.3906,1323.7656 L1139.9219,1323.7656 Z " fill="#000000"/><text fill="#000000" font-family="sans-serif" font-size="14" font-style="italic" lengthAdjust="spacing" textLength="104" x="1158" y="1332.8467">ApduEncryptor</text><line style="stroke:#181818;stroke-width:0.5;" x1="1130" x2="1264" y1="1344" y2="1344"/><line style="stroke:#181818;stroke-width:0.5;" x1="1130" x2="1264" y1="1352" y2="1352"/></g><!--class Tag--><g id="elem_Tag"><rect codeLine="40" fill="#F1F1F1" height="48" id="Tag" rx="2.5" ry="2.5" style="stroke:#181818;stroke-width:0.5;" width="58" x="1451.5" y="1096"/><ellipse cx="1466.5" cy="1112" fill="#ADD1B2" rx="11" ry="11" style="stroke:#181818;stroke-width:1.0;"/><path d="M1469.4688,1117.6406 Q1468.8906,1117.9375 1468.25,1118.0781 Q1467.6094,1118.2344 1466.9063,1118.2344 Q1464.4063,1118.2344 1463.0781,1116.5938 Q1461.7656,1114.9375 1461.7656,1111.8125 Q1461.7656,1108.6875 1463.0781,1107.0313 Q1464.4063,1105.375 1466.9063,1105.375 Q1467.6094,1105.375 1468.25,1105.5313 Q1468.9063,1105.6875 1469.4688,1105.9844 L1469.4688,1108.7031 Q1468.8438,1108.125 1468.25,1107.8594 Q1467.6563,1107.5781 1467.0313,1107.5781 Q1465.6875,1107.5781 1465,1108.6563 Q1464.3125,1109.7188 1464.3125,1111.8125 Q1464.3125,1113.9063 1465,1114.9844 Q1465.6875,1116.0469 1467.0313,1116.0469 Q1467.6563,1116.0469 1468.25,1115.7813 Q1468.8438,1115.5 1469.4688,1114.9219 L1469.4688,1117.6406 Z " fill="#000000"/><text fill="#000000" font-family="sans-serif" font-size="14" lengthAdjust="spacing" textLength="26" x="1480.5" y="1116.8467">Tag</text><line style="stroke:#181818;stroke-width:0.5;" x1="1452.5" x2="1508.5" y1="1128" y2="1128"/><line style="stroke:#181818;stroke-width:0.5;" x1="1452.5" x2="1508.5" y1="1136" y2="1136"/></g><!--class IsoDep--><g id="elem_IsoDep"><rect codeLine="41" fill="#F1F1F1" height="48" id="IsoDep" rx="2.5" ry="2.5" style="stroke:#181818;stroke-width:0.5;" width="81" x="1440" y="1013"/><ellipse cx="1455" cy="1029" fill="#ADD1B2" rx="11" ry="11" style="stroke:#181818;stroke-width:1.0;"/><path d="M1457.9688,1034.6406 Q1457.3906,1034.9375 1456.75,1035.0781 Q1456.1094,1035.2344 1455.4063,1035.2344 Q1452.9063,1035.2344 1451.5781,1033.5938 Q1450.2656,1031.9375 1450.2656,1028.8125 Q1450.2656,1025.6875 1451.5781,1024.0313 Q1452.9063,1022.375 1455.4063,1022.375 Q1456.1094,1022.375 1456.75,1022.5313 Q1457.4063,1022.6875 1457.9688,1022.9844 L1457.9688,1025.7031 Q1457.3438,1025.125 1456.75,1024.8594 Q1456.1563,1024.5781 1455.5313,1024.5781 Q1454.1875,1024.5781 1453.5,1025.6563 Q1452.8125,1026.7188 1452.8125,1028.8125 Q1452.8125,1030.9063 1453.5,1031.9844 Q1454.1875,1033.0469 1455.5313,1033.0469 Q1456.1563,1033.0469 1456.75,1032.7813 Q1457.3438,1032.5 1457.9688,1031.9219 L1457.9688,1034.6406 Z " fill="#000000"/><text fill="#000000" font-family="sans-serif" font-size="14" lengthAdjust="spacing" textLength="49" x="1469" y="1033.8467">IsoDep</text><line style="stroke:#181818;stroke-width:0.5;" x1="1441" x2="1520" y1="1045" y2="1045"/><line style="stroke:#181818;stroke-width:0.5;" x1="1441" x2="1520" y1="1053" y2="1053"/></g><!--class ReaderCallback--><g id="elem_ReaderCallback"><rect codeLine="42" fill="#F1F1F1" height="48" id="ReaderCallback" rx="2.5" ry="2.5" style="stroke:#181818;stroke-width:0.5;" width="139" x="1411" y="1211"/><ellipse cx="1426" cy="1227" fill="#B4A7E5" rx="11" ry="11" style="stroke:#181818;stroke-width:1.0;"/><path d="M1421.9219,1222.7656 L1421.9219,1220.6094 L1429.3125,1220.6094 L1429.3125,1222.7656 L1426.8438,1222.7656 L1426.8438,1230.8438 L1429.3125,1230.8438 L1429.3125,1233 L1421.9219,1233 L1421.9219,1230.8438 L1424.3906,1230.8438 L1424.3906,1222.7656 L1421.9219,1222.7656 Z " fill="#000000"/><text fill="#000000" font-family="sans-serif" font-size="14" font-style="italic" lengthAdjust="spacing" textLength="107" x="1440" y="1231.8467">ReaderCallback</text><line style="stroke:#181818;stroke-width:0.5;" x1="1412" x2="1549" y1="1243" y2="1243"/><line style="stroke:#181818;stroke-width:0.5;" x1="1412" x2="1549" y1="1251" y2="1251"/></g><!--class Observable--><g id="elem_Observable"><rect codeLine="24" fill="#F1F1F1" height="48" id="Observable" rx="2.5" ry="2.5" style="stroke:#181818;stroke-width:0.5;" width="110" x="797" y="2333"/><ellipse cx="812" cy="2349" fill="#ADD1B2" rx="11" ry="11" style="stroke:#181818;stroke-width:1.0;"/><path d="M814.9688,2354.6406 Q814.3906,2354.9375 813.75,2355.0781 Q813.1094,2355.2344 812.4063,2355.2344 Q809.9063,2355.2344 808.5781,2353.5938 Q807.2656,2351.9375 807.2656,2348.8125 Q807.2656,2345.6875 808.5781,2344.0313 Q809.9063,2342.375 812.4063,2342.375 Q813.1094,2342.375 813.75,2342.5313 Q814.4063,2342.6875 814.9688,2342.9844 L814.9688,2345.7031 Q814.3438,2345.125 813.75,2344.8594 Q813.1563,2344.5781 812.5313,2344.5781 Q811.1875,2344.5781 810.5,2345.6563 Q809.8125,2346.7188 809.8125,2348.8125 Q809.8125,2350.9063 810.5,2351.9844 Q811.1875,2353.0469 812.5313,2353.0469 Q813.1563,2353.0469 813.75,2352.7813 Q814.3438,2352.5 814.9688,2351.9219 L814.9688,2354.6406 Z " fill="#000000"/><text fill="#000000" font-family="sans-serif" font-size="14" lengthAdjust="spacing" textLength="78" x="826" y="2353.8467">Observable</text><line style="stroke:#181818;stroke-width:0.5;" x1="798" x2="906" y1="2365" y2="2365"/><line style="stroke:#181818;stroke-width:0.5;" x1="798" x2="906" y1="2373" y2="2373"/></g><!--class ObservableEmitter--><g id="elem_ObservableEmitter"><rect codeLine="25" fill="#F1F1F1" height="48" id="ObservableEmitter" rx="2.5" ry="2.5" style="stroke:#181818;stroke-width:0.5;" width="159" x="772.5" y="2250"/><ellipse cx="787.5" cy="2266" fill="#ADD1B2" rx="11" ry="11" style="stroke:#181818;stroke-width:1.0;"/><path d="M790.4688,2271.6406 Q789.8906,2271.9375 789.25,2272.0781 Q788.6094,2272.2344 787.9063,2272.2344 Q785.4063,2272.2344 784.0781,2270.5938 Q782.7656,2268.9375 782.7656,2265.8125 Q782.7656,2262.6875 784.0781,2261.0313 Q785.4063,2259.375 787.9063,2259.375 Q788.6094,2259.375 789.25,2259.5313 Q789.9063,2259.6875 790.4688,2259.9844 L790.4688,2262.7031 Q789.8438,2262.125 789.25,2261.8594 Q788.6563,2261.5781 788.0313,2261.5781 Q786.6875,2261.5781 786,2262.6563 Q785.3125,2263.7188 785.3125,2265.8125 Q785.3125,2267.9063 786,2268.9844 Q786.6875,2270.0469 788.0313,2270.0469 Q788.6563,2270.0469 789.25,2269.7813 Q789.8438,2269.5 790.4688,2268.9219 L790.4688,2271.6406 Z " fill="#000000"/><text fill="#000000" font-family="sans-serif" font-size="14" lengthAdjust="spacing" textLength="127" x="801.5" y="2270.8467">ObservableEmitter</text><line style="stroke:#181818;stroke-width:0.5;" x1="773.5" x2="930.5" y1="2282" y2="2282"/><line style="stroke:#181818;stroke-width:0.5;" x1="773.5" x2="930.5" y1="2290" y2="2290"/></g><!--class ObservableOnSubscribe--><g id="elem_ObservableOnSubscribe"><rect codeLine="26" fill="#F1F1F1" height="48" id="ObservableOnSubscribe" rx="2.5" ry="2.5" style="stroke:#181818;stroke-width:0.5;" width="198" x="753" y="2167"/><ellipse cx="768" cy="2183" fill="#B4A7E5" rx="11" ry="11" style="stroke:#181818;stroke-width:1.0;"/><path d="M763.9219,2178.7656 L763.9219,2176.6094 L771.3125,2176.6094 L771.3125,2178.7656 L768.8438,2178.7656 L768.8438,2186.8438 L771.3125,2186.8438 L771.3125,2189 L763.9219,2189 L763.9219,2186.8438 L766.3906,2186.8438 L766.3906,2178.7656 L763.9219,2178.7656 Z " fill="#000000"/><text fill="#000000" font-family="sans-serif" font-size="14" font-style="italic" lengthAdjust="spacing" textLength="166" x="782" y="2187.8467">ObservableOnSubscribe</text><line style="stroke:#181818;stroke-width:0.5;" x1="754" x2="950" y1="2199" y2="2199"/><line style="stroke:#181818;stroke-width:0.5;" x1="754" x2="950" y1="2207" y2="2207"/></g><!--class Activity--><g id="elem_Activity"><rect codeLine="59" fill="#F1F1F1" height="48" id="Activity" rx="2.5" ry="2.5" style="stroke:#181818;stroke-width:0.5;" width="79" x="1441" y="1621"/><ellipse cx="1456" cy="1637" fill="#ADD1B2" rx="11" ry="11" style="stroke:#181818;stroke-width:1.0;"/><path d="M1458.9688,1642.6406 Q1458.3906,1642.9375 1457.75,1643.0781 Q1457.1094,1643.2344 1456.4063,1643.2344 Q1453.9063,1643.2344 1452.5781,1641.5938 Q1451.2656,1639.9375 1451.2656,1636.8125 Q1451.2656,1633.6875 1452.5781,1632.0313 Q1453.9063,1630.375 1456.4063,1630.375 Q1457.1094,1630.375 1457.75,1630.5313 Q1458.4063,1630.6875 1458.9688,1630.9844 L1458.9688,1633.7031 Q1458.3438,1633.125 1457.75,1632.8594 Q1457.1563,1632.5781 1456.5313,1632.5781 Q1455.1875,1632.5781 1454.5,1633.6563 Q1453.8125,1634.7188 1453.8125,1636.8125 Q1453.8125,1638.9063 1454.5,1639.9844 Q1455.1875,1641.0469 1456.5313,1641.0469 Q1457.1563,1641.0469 1457.75,1640.7813 Q1458.3438,1640.5 1458.9688,1639.9219 L1458.9688,1642.6406 Z " fill="#000000"/><text fill="#000000" font-family="sans-serif" font-size="14" lengthAdjust="spacing" textLength="47" x="1470" y="1641.8467">Activity</text><line style="stroke:#181818;stroke-width:0.5;" x1="1442" x2="1519" y1="1653" y2="1653"/><line style="stroke:#181818;stroke-width:0.5;" x1="1442" x2="1519" y1="1661" y2="1661"/></g><!--class PendingIntent--><g id="elem_PendingIntent"><rect codeLine="60" fill="#F1F1F1" height="48" id="PendingIntent" rx="2.5" ry="2.5" style="stroke:#181818;stroke-width:0.5;" width="129" x="1416" y="1704"/><ellipse cx="1431" cy="1720" fill="#ADD1B2" rx="11" ry="11" style="stroke:#181818;stroke-width:1.0;"/><path d="M1433.9688,1725.6406 Q1433.3906,1725.9375 1432.75,1726.0781 Q1432.1094,1726.2344 1431.4063,1726.2344 Q1428.9063,1726.2344 1427.5781,1724.5938 Q1426.2656,1722.9375 1426.2656,1719.8125 Q1426.2656,1716.6875 1427.5781,1715.0313 Q1428.9063,1713.375 1431.4063,1713.375 Q1432.1094,1713.375 1432.75,1713.5313 Q1433.4063,1713.6875 1433.9688,1713.9844 L1433.9688,1716.7031 Q1433.3438,1716.125 1432.75,1715.8594 Q1432.1563,1715.5781 1431.5313,1715.5781 Q1430.1875,1715.5781 1429.5,1716.6563 Q1428.8125,1717.7188 1428.8125,1719.8125 Q1428.8125,1721.9063 1429.5,1722.9844 Q1430.1875,1724.0469 1431.5313,1724.0469 Q1432.1563,1724.0469 1432.75,1723.7813 Q1433.3438,1723.5 1433.9688,1722.9219 L1433.9688,1725.6406 Z " fill="#000000"/><text fill="#000000" font-family="sans-serif" font-size="14" lengthAdjust="spacing" textLength="97" x="1445" y="1724.8467">PendingIntent</text><line style="stroke:#181818;stroke-width:0.5;" x1="1417" x2="1544" y1="1736" y2="1736"/><line style="stroke:#181818;stroke-width:0.5;" x1="1417" x2="1544" y1="1744" y2="1744"/></g><path d="M193.5,269.5 L208.5,269.5 A3.75,3.75 0 0 1 211,272 L218,291.7969 L222.5,291.7969 A2.5,2.5 0 0 1 225,294.2969 L225,319.5938 A2.5,2.5 0 0 1 222.5,322.0938 L193.5,322.0938 A2.5,2.5 0 0 1 191,319.5938 L191,272 A2.5,2.5 0 0 1 193.5,269.5 " fill="#F1F1F1" style="stroke:#181818;stroke-width:0.5;"/><line style="stroke:#181818;stroke-width:0.5;" x1="191" x2="218" y1="291.7969" y2="291.7969"/><text fill="#000000" font-family="sans-serif" font-size="14" font-weight="bold" lengthAdjust="spacing" textLength="14" x="195" y="284.4951">io</text><path d="M168.5,357.5 L233.5,357.5 A3.75,3.75 0 0 1 236,360 L243,379.7969 L247.5,379.7969 A2.5,2.5 0 0 1 250,382.2969 L250,407.5938 A2.5,2.5 0 0 1 247.5,410.0938 L168.5,410.0938 A2.5,2.5 0 0 1 166,407.5938 L166,360 A2.5,2.5 0 0 1 168.5,357.5 " fill="#F1F1F1" style="stroke:#181818;stroke-width:0.5;"/><line style="stroke:#181818;stroke-width:0.5;" x1="166" x2="243" y1="379.7969" y2="379.7969"/><text fill="#000000" font-family="sans-serif" font-size="14" font-weight="bold" lengthAdjust="spacing" textLength="64" x="170" y="372.4951">security</text><path d="M188.5,445.5 L213.5,445.5 A3.75,3.75 0 0 1 216,448 L223,467.7969 L227.5,467.7969 A2.5,2.5 0 0 1 230,470.2969 L230,495.5938 A2.5,2.5 0 0 1 227.5,498.0938 L188.5,498.0938 A2.5,2.5 0 0 1 186,495.5938 L186,448 A2.5,2.5 0 0 1 188.5,445.5 " fill="#F1F1F1" style="stroke:#181818;stroke-width:0.5;"/><line style="stroke:#181818;stroke-width:0.5;" x1="186" x2="223" y1="467.7969" y2="467.7969"/><text fill="#000000" font-family="sans-serif" font-size="14" font-weight="bold" lengthAdjust="spacing" textLength="24" x="190" y="460.4951">util</text><path d="M188.5,100.5 L213.5,100.5 A3.75,3.75 0 0 1 216,103 L223,122.7969 L227.5,122.7969 A2.5,2.5 0 0 1 230,125.2969 L230,150.5938 A2.5,2.5 0 0 1 227.5,153.0938 L188.5,153.0938 A2.5,2.5 0 0 1 186,150.5938 L186,103 A2.5,2.5 0 0 1 188.5,100.5 " fill="#F1F1F1" style="stroke:#181818;stroke-width:0.5;"/><line style="stroke:#181818;stroke-width:0.5;" x1="186" x2="223" y1="122.7969" y2="122.7969"/><text fill="#000000" font-family="sans-serif" font-size="14" font-weight="bold" lengthAdjust="spacing" textLength="24" x="190" y="115.4951">util</text><!--reverse link SmartCardReader to UsbSmartCardReader--><g id="link_SmartCardReader_UsbSmartCardReader"><path codeLine="67" d="M793.5456,760.1287 C753.7956,783.2787 708.27,810.68 657,845 C495.82,952.9 311.57,1094.18 239.83,1149.91 " fill="none" id="SmartCardReader-backto-UsbSmartCardReader" style="stroke:#181818;stroke-width:1.0;"/><polygon fill="none" points="809.1,751.07,790.526,754.9439,796.5652,765.3135,809.1,751.07" style="stroke:#181818;stroke-width:1.0;"/></g><!--link UsbSmartCardReader to UsbDevice--><g id="link_UsbSmartCardReader_UsbDevice"><path codeLine="68" d="M298.05,1166.53 C324.12,1164.66 352.68,1162.93 379,1162 C498.93,1157.77 529.63,1149.72 649,1162 C700.49,1167.3 752.3869,1178.5439 792.8969,1188.6039 " fill="none" id="UsbSmartCardReader-to-UsbDevice" style="stroke:#181818;stroke-width:1.0;stroke-dasharray:7.0,7.0;"/><polygon fill="#181818" points="798.72,1190.05,790.9494,1183.9988,793.8674,1188.8449,789.0213,1191.763,798.72,1190.05" style="stroke:#181818;stroke-width:1.0;"/></g><!--reverse link SmartCardReader to NfcSmartCardReader--><g id="link_SmartCardReader_NfcSmartCardReader"><path codeLine="69" d="M919.3879,759.3409 C960.6579,780.5609 1003.18,805.89 1047,845 C1105.24,896.98 1157.12,974.1 1181.41,1012.88 " fill="none" id="SmartCardReader-backto-NfcSmartCardReader" style="stroke:#181818;stroke-width:1.0;"/><polygon fill="none" points="903.38,751.11,916.6443,764.6768,922.1315,754.0049,903.38,751.11" style="stroke:#181818;stroke-width:1.0;"/></g><!--link NfcSmartCardReader to Tag--><g id="link_NfcSmartCardReader_Tag"><path codeLine="70" d="M1271.54,1061.09 C1288.41,1066.46 1306.29,1072.03 1323,1077 C1367.7,1090.29 1414.2088,1102.8384 1445.6088,1111.1284 " fill="none" id="NfcSmartCardReader-to-Tag" style="stroke:#181818;stroke-width:1.0;stroke-dasharray:7.0,7.0;"/><polygon fill="#181818" points="1451.41,1112.66,1443.7292,1106.4951,1446.5756,1111.3837,1441.6871,1114.2301,1451.41,1112.66" style="stroke:#181818;stroke-width:1.0;"/></g><!--link NfcSmartCardReader to IsoDep--><g id="link_NfcSmartCardReader_IsoDep"><path codeLine="71" d="M1285.14,1037 C1336.81,1037 1393.82,1037 1433.8,1037 " fill="none" id="NfcSmartCardReader-to-IsoDep" style="stroke:#181818;stroke-width:1.0;stroke-dasharray:7.0,7.0;"/><polygon fill="#181818" points="1439.8,1037,1430.8,1033,1434.8,1037,1430.8,1041,1439.8,1037" style="stroke:#181818;stroke-width:1.0;"/></g><!--link NfcSmartCardReaderManager to Activity--><g id="link_NfcSmartCardReaderManager_Activity"><path codeLine="72" d="M1280.74,1271 C1293.19,1277.11 1305.14,1284.68 1315,1294 C1316.64,1295.55 1429.016,1536.6313 1465.786,1615.5513 " fill="none" id="NfcSmartCardReaderManager-to-Activity" style="stroke:#181818;stroke-width:1.0;stroke-dasharray:7.0,7.0;"/><polygon fill="#181818" points="1468.32,1620.99,1468.1448,1611.1427,1466.2084,1616.4578,1460.8933,1614.5213,1468.32,1620.99" style="stroke:#181818;stroke-width:1.0;"/></g><!--link NfcSmartCardReaderManager to NfcAdapter--><g id="link_NfcSmartCardReaderManager_NfcAdapter"><path codeLine="73" d="M1301.52,1271.02 C1308.77,1272.45 1315.99,1273.79 1323,1275 C1339.9925,1277.9275 1358.0994,1280.565 1375.7431,1282.8778 C1377.9486,1283.1669 1380.1468,1283.4509 1382.3347,1283.7298 C1383.4287,1283.8693 1384.5201,1284.0074 1385.6085,1284.1443 C1385.8806,1284.1785 1380.1991,1283.4665 1380.4708,1283.5006 " fill="none" id="NfcSmartCardReaderManager-to-NfcAdapter" style="stroke:#181818;stroke-width:1.0;stroke-dasharray:7.0,7.0;"/><polygon fill="#181818" points="1386.4242,1284.2467,1377.9915,1279.1586,1381.463,1283.6249,1376.9967,1287.0965,1386.4242,1284.2467" style="stroke:#181818;stroke-width:1.0;"/></g><!--link NfcSmartCardReaderManager to Tag--><g id="link_NfcSmartCardReaderManager_Tag"><path codeLine="74" d="M1251.28,1222.96 C1310.73,1196.14 1399.221,1156.2177 1445.851,1135.1777 " fill="none" id="NfcSmartCardReaderManager-to-Tag" style="stroke:#181818;stroke-width:1.0;stroke-dasharray:7.0,7.0;"/><polygon fill="#181818" points="1451.32,1132.71,1441.4713,1132.7655,1446.7625,1134.7664,1444.7616,1140.0576,1451.32,1132.71" style="stroke:#181818;stroke-width:1.0;"/></g><!--reverse link ReaderCallback to NfcSmartCardReaderManager--><g id="link_ReaderCallback_NfcSmartCardReaderManager"><path codeLine="75" d="M1392.6263,1238.7047 C1363.9363,1239.9247 1347.78,1240.62 1315.34,1242 " fill="none" id="ReaderCallback-backto-NfcSmartCardReaderManager" style="stroke:#181818;stroke-width:1.0;"/><polygon fill="none" points="1410.61,1237.94,1392.3713,1232.7101,1392.8812,1244.6993,1410.61,1237.94" style="stroke:#181818;stroke-width:1.0;"/></g><!--reverse link UsbSmartCardReader to AcsUsbSmartCardReader--><g id="link_UsbSmartCardReader_AcsUsbSmartCardReader"><path codeLine="76" d="M316.0732,1184.5659 C351.3732,1188.0459 374.25,1190.31 410.74,1193.91 " fill="none" id="UsbSmartCardReader-backto-AcsUsbSmartCardReader" style="stroke:#181818;stroke-width:1.0;"/><polygon fill="none" points="298.16,1182.8,315.4845,1190.537,316.6618,1178.5949,298.16,1182.8" style="stroke:#181818;stroke-width:1.0;"/></g><!--link AcsUsbSmartCardReader to UsbDevice--><g id="link_AcsUsbSmartCardReader_UsbDevice"><path codeLine="77" d="M617.18,1204 C677.23,1204 744.6,1204 792.95,1204 " fill="none" id="AcsUsbSmartCardReader-to-UsbDevice" style="stroke:#181818;stroke-width:1.0;stroke-dasharray:7.0,7.0;"/><polygon fill="#181818" points="798.95,1204,789.95,1200,793.95,1204,789.95,1208,798.95,1204" style="stroke:#181818;stroke-width:1.0;"/></g><!--link AcsUsbSmartCardReader to UsbManager--><g id="link_AcsUsbSmartCardReader_UsbManager"><path codeLine="78" d="M594.72,1228.05 C614.96,1233.87 636.72,1239.88 657,1245 C702.11,1256.38 747.7122,1266.2352 786.3022,1274.1452 " fill="none" id="AcsUsbSmartCardReader-to-UsbManager" style="stroke:#181818;stroke-width:1.0;stroke-dasharray:7.0,7.0;"/><polygon fill="#181818" points="792.18,1275.35,784.1665,1269.6243,787.2818,1274.346,782.5601,1277.4613,792.18,1275.35" style="stroke:#181818;stroke-width:1.0;"/></g><!--link AcsUsbSmartCardReader to acs--><g id="link_AcsUsbSmartCardReader_acs"><path codeLine="79" d="M617.22,1197.96 C629.41,1193.13 640.51,1186.1 649,1176 C666.45,1155.23 639.73,952.92 657,932 C699.11,881 780.8022,881.1643 822.3022,884.7443 " fill="none" id="AcsUsbSmartCardReader-to-acs" style="stroke:#181818;stroke-width:1.0;stroke-dasharray:7.0,7.0;"/><polygon fill="#181818" points="828.28,885.26,819.6571,880.5013,823.2985,884.8303,818.9695,888.4717,828.28,885.26" style="stroke:#181818;stroke-width:1.0;"/></g><!--reverse link UsbSmartCardReader to IdentivUsbSmartCardReader--><g id="link_UsbSmartCardReader_IdentivUsbSmartCardReader"><path codeLine="80" d="M315.2535,1199.5946 C322.3835,1202.0846 312.39,1198.92 319,1202 C348.74,1215.84 349.64,1230.35 379,1245 C392.63,1251.8 407.6,1257.79 422.43,1262.95 " fill="none" id="UsbSmartCardReader-backto-IdentivUsbSmartCardReader" style="stroke:#181818;stroke-width:1.0;"/><polygon fill="none" points="298.26,1193.66,313.2753,1205.2591,317.2317,1193.9301,298.26,1193.66" style="stroke:#181818;stroke-width:1.0;"/></g><!--link IdentivUsbSmartCardReader to Context--><g id="link_IdentivUsbSmartCardReader_Context"><path codeLine="81" d="M564.58,1311.05 C630.75,1343.15 741.4017,1396.8312 803.5317,1426.9712 " fill="none" id="IdentivUsbSmartCardReader-to-Context" style="stroke:#181818;stroke-width:1.0;stroke-dasharray:7.0,7.0;"/><polygon fill="#181818" points="808.93,1429.59,802.5784,1422.0629,804.4314,1427.4077,799.0866,1429.2607,808.93,1429.59" style="stroke:#181818;stroke-width:1.0;"/></g><!--link IdentivUsbSmartCardReader to UsbDevice--><g id="link_IdentivUsbSmartCardReader_UsbDevice"><path codeLine="82" d="M592.08,1262.99 C613.04,1256.79 635.82,1250.36 657,1245 C704.72,1232.92 753.7722,1222.6947 792.9822,1215.0047 " fill="none" id="IdentivUsbSmartCardReader-to-UsbDevice" style="stroke:#181818;stroke-width:1.0;stroke-dasharray:7.0,7.0;"/><polygon fill="#181818" points="798.87,1213.85,789.2684,1211.6569,793.9635,1214.8123,790.8081,1219.5073,798.87,1213.85" style="stroke:#181818;stroke-width:1.0;"/></g><!--link IdentivUsbSmartCardReader to UsbManager--><g id="link_IdentivUsbSmartCardReader_UsbManager"><path codeLine="83" d="M627.35,1287 C682.48,1287 740.63,1287 786.05,1287 " fill="none" id="IdentivUsbSmartCardReader-to-UsbManager" style="stroke:#181818;stroke-width:1.0;stroke-dasharray:7.0,7.0;"/><polygon fill="#181818" points="792.05,1287,783.05,1283,787.05,1287,783.05,1291,792.05,1287" style="stroke:#181818;stroke-width:1.0;"/></g><!--link IdentivUsbSmartCardReader to identive--><g id="link_IdentivUsbSmartCardReader_identive"><path codeLine="84" d="M627.07,1263.91 C635.35,1258.79 642.85,1252.57 649,1245 C660.41,1230.97 649.14,1180.29 657,1164 C691.26,1093.04 759.175,1037.677 805.205,1005.647 " fill="none" id="IdentivUsbSmartCardReader-to-identive" style="stroke:#181818;stroke-width:1.0;stroke-dasharray:7.0,7.0;"/><polygon fill="#181818" points="810.13,1002.22,800.4578,1004.0773,806.0259,1005.0759,805.0272,1010.6439,810.13,1002.22" style="stroke:#181818;stroke-width:1.0;"/></g><!--link UsbSmartCardReaderManager to SmartCardReader--><g id="link_UsbSmartCardReaderManager_SmartCardReader"><path codeLine="85" d="M556.19,1425.84 C588.04,1404.58 629.83,1370.43 649,1328 C660.05,1303.54 643.65,868.28 657,845 C683.07,799.51 728.8975,771.7857 772.2175,753.3857 " fill="none" id="UsbSmartCardReaderManager-to-SmartCardReader" style="stroke:#181818;stroke-width:1.0;stroke-dasharray:7.0,7.0;"/><polygon fill="#181818" points="777.74,751.04,767.8925,750.8768,773.1379,752.9947,771.02,758.2401,777.74,751.04" style="stroke:#181818;stroke-width:1.0;"/></g><!--link UsbSmartCardReaderManager to Context--><g id="link_UsbSmartCardReaderManager_Context"><path codeLine="86" d="M634.88,1450 C695.57,1450 759.4,1450 802.87,1450 " fill="none" id="UsbSmartCardReaderManager-to-Context" style="stroke:#181818;stroke-width:1.0;stroke-dasharray:7.0,7.0;"/><polygon fill="#181818" points="808.87,1450,799.87,1446,803.87,1450,799.87,1454,808.87,1450" style="stroke:#181818;stroke-width:1.0;"/></g><!--link UsbSmartCardReaderManager to UsbDevice--><g id="link_UsbSmartCardReaderManager_UsbDevice"><path codeLine="87" d="M554.66,1425.85 C586.06,1404.37 628.01,1369.92 649,1328 C657.3,1311.43 644.65,1258.82 657,1245 C691.98,1205.86 748.1307,1198.707 792.6607,1199.397 " fill="none" id="UsbSmartCardReaderManager-to-UsbDevice" style="stroke:#181818;stroke-width:1.0;stroke-dasharray:7.0,7.0;"/><polygon fill="#181818" points="798.66,1199.49,789.7231,1195.351,793.6606,1199.4125,789.5991,1203.3501,798.66,1199.49" style="stroke:#181818;stroke-width:1.0;"/></g><!--link UsbSmartCardReaderManager to UsbManager--><g id="link_UsbSmartCardReaderManager_UsbManager"><path codeLine="88" d="M564.58,1425.95 C628.2,1395.09 732.5116,1344.4786 796.0916,1313.6386 " fill="none" id="UsbSmartCardReaderManager-to-UsbManager" style="stroke:#181818;stroke-width:1.0;stroke-dasharray:7.0,7.0;"/><polygon fill="#181818" points="801.49,1311.02,791.6466,1311.3489,796.9913,1313.2021,795.138,1318.5468,801.49,1311.02" style="stroke:#181818;stroke-width:1.0;"/></g><!--link UsbSmartCardReaderManager to Observable--><g id="link_UsbSmartCardReaderManager_Observable"><path codeLine="89" d="M555.3,1474.04 C587.32,1495.67 629.79,1530.68 649,1574 C657.35,1592.82 643.99,2299.05 657,2315 C690,2355.46 745.8809,2362.8466 790.9109,2362.0466 " fill="none" id="UsbSmartCardReaderManager-to-Observable" style="stroke:#181818;stroke-width:1.0;stroke-dasharray:7.0,7.0;"/><polygon fill="#181818" points="796.91,2361.94,787.8404,2358.1005,791.9108,2362.0288,787.9825,2366.0992,796.91,2361.94" style="stroke:#181818;stroke-width:1.0;"/></g><!--link UsbSmartCardReaderManager to SmartCardReaderStatus--><g id="link_UsbSmartCardReaderManager_SmartCardReaderStatus"><path codeLine="90" d="M554.56,1474.01 C586.36,1495.74 628.91,1530.91 649,1574 C664.51,1607.27 636.37,1708.63 657,1739 C679.24,1771.73 711.1368,1790.4418 747.2968,1803.5018 " fill="none" id="UsbSmartCardReaderManager-to-SmartCardReaderStatus" style="stroke:#181818;stroke-width:1.0;stroke-dasharray:7.0,7.0;"/><polygon fill="#181818" points="752.94,1805.54,745.834,1798.7206,748.2373,1803.8415,743.1164,1806.2449,752.94,1805.54" style="stroke:#181818;stroke-width:1.0;"/></g><!--reverse link SmartCardReaderManager to UsbSmartCardReaderManager--><g id="link_SmartCardReaderManager_UsbSmartCardReaderManager"><path codeLine="91" d="M259.893,1850.3523 C284.073,1832.6123 300.22,1817.04 319,1787 C371.14,1703.61 327.65,1657.88 379,1574 C404.24,1532.78 446.96,1496.66 477.38,1474.2 " fill="none" id="SmartCardReaderManager-backto-UsbSmartCardReaderManager" style="stroke:#181818;stroke-width:1.0;"/><polygon fill="none" points="245.38,1861,263.4422,1855.19,256.3438,1845.5147,245.38,1861" style="stroke:#181818;stroke-width:1.0;"/></g><!--link UsbSmartCardReaderOnSubscribe to SmartCardReader--><g id="link_UsbSmartCardReaderOnSubscribe_SmartCardReader"><path codeLine="92" d="M554.97,1591.9 C587.02,1570.06 629.7,1534.65 649,1491 C663.51,1458.17 639.22,876.18 657,845 C682.98,799.46 728.8067,771.7337 772.1467,753.3437 " fill="none" id="UsbSmartCardReaderOnSubscribe-to-SmartCardReader" style="stroke:#181818;stroke-width:1.0;stroke-dasharray:7.0,7.0;"/><polygon fill="#181818" points="777.67,751,767.8226,750.8333,773.0672,752.953,770.9474,758.1977,777.67,751" style="stroke:#181818;stroke-width:1.0;"/></g><!--link UsbSmartCardReaderOnSubscribe to PendingIntent--><g id="link_UsbSmartCardReaderOnSubscribe_PendingIntent"><path codeLine="93" d="M645.44,1640.06 C646.67,1641.32 647.86,1642.63 649,1644 C660.42,1657.7 644.23,1952.54 657,1965 C892.63,2194.83 1331.6735,1853.3884 1446.9635,1756.1484 " fill="none" id="UsbSmartCardReaderOnSubscribe-to-PendingIntent" style="stroke:#181818;stroke-width:1.0;stroke-dasharray:7.0,7.0;"/><polygon fill="#181818" points="1451.55,1752.28,1442.0914,1755.025,1447.728,1755.5037,1447.2492,1761.1402,1451.55,1752.28" style="stroke:#181818;stroke-width:1.0;"/></g><!--link UsbSmartCardReaderOnSubscribe to BroadcastReceiver--><g id="link_UsbSmartCardReaderOnSubscribe_BroadcastReceiver"><path codeLine="94" d="M643.02,1640.09 C645.06,1641.33 647.06,1642.63 649,1644 C654.55,1647.9 651.46,1653.08 657,1657 C689.9,1680.3 727.2995,1690.3111 764.6795,1695.1411 " fill="none" id="UsbSmartCardReaderOnSubscribe-to-BroadcastReceiver" style="stroke:#181818;stroke-width:1.0;stroke-dasharray:7.0,7.0;"/><polygon fill="#181818" points="770.63,1695.91,762.2168,1690.7896,765.6712,1695.2693,761.1916,1698.7237,770.63,1695.91" style="stroke:#181818;stroke-width:1.0;"/></g><!--link UsbSmartCardReaderOnSubscribe to Context--><g id="link_UsbSmartCardReaderOnSubscribe_Context"><path codeLine="95" d="M535.19,1591.89 C560.58,1563.22 606.95,1516.11 657,1491 C705.61,1466.61 762.1489,1457.2979 802.8789,1453.2879 " fill="none" id="UsbSmartCardReaderOnSubscribe-to-Context" style="stroke:#181818;stroke-width:1.0;stroke-dasharray:7.0,7.0;"/><polygon fill="#181818" points="808.85,1452.7,799.5014,1449.6011,803.8741,1453.1899,800.2852,1457.5626,808.85,1452.7" style="stroke:#181818;stroke-width:1.0;"/></g><!--link UsbSmartCardReaderOnSubscribe to Intent--><g id="link_UsbSmartCardReaderOnSubscribe_Intent"><path codeLine="96" d="M592.08,1591.99 C613.04,1585.79 635.82,1579.36 657,1574 C712.06,1560.06 770.8473,1548.1896 809.8673,1540.7096 " fill="none" id="UsbSmartCardReaderOnSubscribe-to-Intent" style="stroke:#181818;stroke-width:1.0;stroke-dasharray:7.0,7.0;"/><polygon fill="#181818" points="815.76,1539.58,806.1679,1537.3459,810.8494,1540.5213,807.674,1545.2029,815.76,1539.58" style="stroke:#181818;stroke-width:1.0;"/></g><!--link UsbSmartCardReaderOnSubscribe to IntentFilter--><g id="link_UsbSmartCardReaderOnSubscribe_IntentFilter"><path codeLine="97" d="M649.24,1616 C701.89,1616 753.14,1616 793.17,1616 " fill="none" id="UsbSmartCardReaderOnSubscribe-to-IntentFilter" style="stroke:#181818;stroke-width:1.0;stroke-dasharray:7.0,7.0;"/><polygon fill="#181818" points="799.17,1616,790.17,1612,794.17,1616,790.17,1620,799.17,1616" style="stroke:#181818;stroke-width:1.0;"/></g><!--link UsbSmartCardReaderOnSubscribe to UsbDevice--><g id="link_UsbSmartCardReaderOnSubscribe_UsbDevice"><path codeLine="98" d="M554.75,1591.8 C586.65,1569.9 629.27,1534.45 649,1491 C660.31,1466.1 639.43,1265.96 657,1245 C690.94,1204.5 747.932,1197.6767 792.932,1198.8267 " fill="none" id="UsbSmartCardReaderOnSubscribe-to-UsbDevice" style="stroke:#181818;stroke-width:1.0;stroke-dasharray:7.0,7.0;"/><polygon fill="#181818" points="798.93,1198.98,790.0351,1194.7514,793.9316,1198.8523,789.8307,1202.7488,798.93,1198.98" style="stroke:#181818;stroke-width:1.0;"/></g><!--link UsbSmartCardReaderOnSubscribe to UsbManager--><g id="link_UsbSmartCardReaderOnSubscribe_UsbManager"><path codeLine="99" d="M553.39,1591.9 C584.91,1569.81 627.7,1534.06 649,1491 C665.04,1458.57 638.03,1440.8 657,1410 C687.75,1360.09 741.6303,1329.2921 786.6403,1310.1121 " fill="none" id="UsbSmartCardReaderOnSubscribe-to-UsbManager" style="stroke:#181818;stroke-width:1.0;stroke-dasharray:7.0,7.0;"/><polygon fill="#181818" points="792.16,1307.76,782.3123,1307.6083,787.5602,1309.7201,785.4485,1314.968,792.16,1307.76" style="stroke:#181818;stroke-width:1.0;"/></g><!--link UsbSmartCardReaderOnSubscribe to BuildConfig--><g id="link_UsbSmartCardReaderOnSubscribe_BuildConfig"><path codeLine="100" d="M645.41,1640.08 C646.65,1641.33 647.85,1642.64 649,1644 C665.05,1663.04 641.02,1848.9 657,1868 C690.39,1907.91 745.8806,1915.4316 790.7106,1914.8216 " fill="none" id="UsbSmartCardReaderOnSubscribe-to-BuildConfig" style="stroke:#181818;stroke-width:1.0;stroke-dasharray:7.0,7.0;"/><polygon fill="#181818" points="796.71,1914.74,787.6564,1910.8628,791.7105,1914.808,787.7653,1918.8621,796.71,1914.74" style="stroke:#181818;stroke-width:1.0;"/></g><!--link UsbSmartCardReaderOnSubscribe to ObservableEmitter--><g id="link_UsbSmartCardReaderOnSubscribe_ObservableEmitter"><path codeLine="101" d="M645.46,1640.04 C646.68,1641.31 647.87,1642.62 649,1644 C669.78,1669.21 636.32,2206.71 657,2232 C684.27,2265.34 725.1796,2275.8013 766.0296,2278.1113 " fill="none" id="UsbSmartCardReaderOnSubscribe-to-ObservableEmitter" style="stroke:#181818;stroke-width:1.0;stroke-dasharray:7.0,7.0;"/><polygon fill="#181818" points="772.02,2278.45,763.2602,2273.9483,767.028,2278.1677,762.8085,2281.9355,772.02,2278.45" style="stroke:#181818;stroke-width:1.0;"/></g><!--reverse link ObservableOnSubscribe to UsbSmartCardReaderOnSubscribe--><g id="link_ObservableOnSubscribe_UsbSmartCardReaderOnSubscribe"><path codeLine="102" d="M802.8634,2155.9897 C756.6734,2120.7897 690.14,2061.39 657,1979 C650.05,1961.73 660.91,1658.31 649,1644 C647.86,1642.63 646.67,1641.32 645.44,1640.06 " fill="none" id="ObservableOnSubscribe-backto-UsbSmartCardReaderOnSubscribe" style="stroke:#181818;stroke-width:1.0;"/><polygon fill="none" points="817.18,2166.9,806.5001,2151.2175,799.2266,2160.7619,817.18,2166.9" style="stroke:#181818;stroke-width:1.0;"/></g><!--link SmartCardReaderManager to Observable--><g id="link_SmartCardReaderManager_Observable"><path codeLine="103" d="M236.91,1909.2 C259.35,1928.81 291.54,1957.31 319,1983 C472.77,2126.86 471.69,2215.01 657,2315 C700.52,2338.48 750.2476,2348.1693 790.7876,2352.7293 " fill="none" id="SmartCardReaderManager-to-Observable" style="stroke:#181818;stroke-width:1.0;stroke-dasharray:7.0,7.0;"/><polygon fill="#181818" points="796.75,2353.4,788.2535,2348.4191,791.7813,2352.8411,787.3593,2356.3689,796.75,2353.4" style="stroke:#181818;stroke-width:1.0;"/></g><!--SRC=[nLXDZzem4BtdLqJSrvTULqWiK8b3knMqFs3Y3C5ji2FReQ0j_xqs4F81aPpFFO6TZD_ppFDu9Z5kjQ-5Brcqqtx895BD1FUy1EWVYD179981MR28BGGbBAGWG__Zx46Wj0IgVHg3KjNtr1wajgzAX10bsTZnt8pNbt53wrG5v9SAgelSIKwes4zyS5h7lEg_lYwF6YM7U3hrFppVpnO2gkpUyWaM8jViW7Rsx3cHdILXkaQL2AvmUQION1pgPFgMiZYS2xvbaTV6hGtX-9QIxrjQTMi7ss_0ZTSSbx3Hc57r9B3EvgjhUBeiyMZRU1EFIxppJHeeAbc09PLAT94f4yJyerPtHoAFl-40NuWrVXJkbUDxe50U88ZnoTHopxInCKyODxzRe5XuMcHwphbQpFfZmaJvb2YagMJwL9vDDOklv-Q-h90H2KJAwOc2qZ7MGpmndXZDkRZFIXDuA0KBxVywf_s4wFvV8zsHbH8BJ4f-CWgVXP2O8Ra6TWvn71W-9Lv60wxP9-ErCzD_GQATh2DePBN00wDOdCd4UIxfoX3ckYc7craT_9iK4DemhP6YaQAyFvbRmwE-ZrUNTIh3hopMLvuvqHko2z7RgtNa84bCxZ0dnAYkDFa3USXuTADaqP6d-uPvTAD1fyhBTT3CF8kHixrLhBqsbfpAKwA5z5fb7VybJLx-JPlUnUsm29cs5Jp9bTtgbXbcdpLO3lki91nYCyjeOCNKrUNETi7ES4kdRsZGweRpd3mwTEl0PfXkmgtVSVKMQbjXEHAfgRjReuwICmQ3pzBwqFYcGo6c4V6wrB-31xWUkQ6NRrK8oOgACR7R2smm2Wr4rfc35LhMu7fTMYKNm5wgZWPu7JNM6tPxZGr6eO76Ed6exMD9eM4TMNUtqhuJQgloivFJ2rtwQ6Uj8MQnDYmtOMEWFpljZmtiPp7fb7TwmF_aG9G-28nDei_ysoEDCTD1yRFo67WkUJ_xAjcPZrioTg5K_1JQAhVtvPl_]--></g></svg>